<svg width="1280" height="800" viewBox="0 0 1280 800" fill="none" xmlns="http://www.w3.org/2000/svg">
<g clip-path="url(#clip0_180_2739)">
<rect width="1280" height="800" fill="url(#paint0_linear_180_2739)"/>
<path opacity="0.08" d="M209.487 717.058C209.262 717.623 208.947 718.188 208.587 718.659C206.922 720.732 204.222 721.109 201.883 720.214C200.893 719.837 199.948 719.224 199.183 718.424C198.778 718.094 198.418 717.67 198.103 717.246C197.563 716.492 197.338 715.644 197.383 714.749C194.144 714.514 190.859 714.231 187.619 713.996L186.225 713.902C185.595 716.963 184.47 719.837 182.94 722.427C184.695 723.982 186.45 725.489 188.204 727.044L191.399 729.823C192.119 729.21 192.974 728.739 193.829 728.504C194.864 728.221 195.989 728.363 196.933 728.787C197.248 728.928 197.518 729.069 197.788 729.258C198.688 729.729 199.543 730.341 200.218 731.048C201.118 731.943 201.703 733.167 201.793 734.486C201.928 736.653 200.893 738.631 199.228 739.809C198.778 740.233 198.283 740.563 197.698 740.798C195.314 741.834 192.749 740.845 191.084 738.961C190.364 738.16 189.779 737.171 189.464 736.088C189.284 735.57 189.104 735.051 189.059 734.533C188.924 733.591 189.059 732.743 189.509 731.99C186.719 730.2 183.93 728.41 181.185 726.573L180.42 726.054C178.44 728.457 176.056 730.482 173.401 732.037C174.256 734.156 175.066 736.276 175.921 738.396C176.461 739.715 177.001 741.081 177.541 742.4C178.441 742.211 179.385 742.211 180.285 742.4C181.32 742.635 182.265 743.295 182.94 744.143C183.165 744.425 183.345 744.661 183.48 744.99C184.065 745.838 184.56 746.78 184.875 747.723C185.28 748.947 185.28 750.313 184.785 751.538C183.975 753.516 182.175 754.788 180.195 755.024C179.61 755.165 179.025 755.212 178.395 755.165C175.831 754.93 173.986 752.857 173.311 750.313C173.041 749.277 172.951 748.099 173.131 746.969C173.176 746.404 173.266 745.885 173.446 745.367C173.761 744.472 174.256 743.813 174.976 743.295C173.311 740.374 171.646 737.407 169.936 734.486L169.576 733.827C166.787 734.91 163.772 735.475 160.668 735.475C160.488 737.783 160.307 740.092 160.127 742.447L159.768 746.78C160.667 747.063 161.522 747.487 162.197 748.099C163.007 748.806 163.547 749.842 163.772 750.926C163.817 751.255 163.862 751.585 163.907 751.915C164.087 752.951 164.042 754.035 163.907 755.024C163.727 756.343 163.142 757.52 162.152 758.368C160.533 759.734 158.418 759.97 156.528 759.263C155.943 759.122 155.403 758.886 154.863 758.557C152.703 757.096 151.939 754.364 152.478 751.821C152.703 750.737 153.153 749.701 153.783 748.759C154.053 748.288 154.413 747.864 154.773 747.487C155.448 746.828 156.213 746.498 157.023 746.404L156.438 736.182V735.193C152.838 734.58 149.509 733.261 146.584 731.33C145.189 733.356 143.794 735.428 142.4 737.454C141.59 738.631 140.78 739.809 139.97 740.987C140.6 741.693 141.095 742.541 141.41 743.436C141.77 744.472 141.725 745.65 141.365 746.733C141.275 747.063 141.14 747.346 140.96 747.675C140.6 748.665 140.06 749.56 139.43 750.36C138.62 751.397 137.54 752.103 136.28 752.292C134.211 752.621 132.276 751.679 131.016 750.031C130.566 749.607 130.206 749.089 129.981 748.523C128.856 746.121 129.531 743.342 131.241 741.458C131.961 740.657 132.861 739.997 133.851 739.573C134.3 739.338 134.795 739.149 135.29 739.008C136.19 738.82 137 738.914 137.765 739.291L142.31 730.2L143.075 728.692C140.96 726.714 139.16 724.406 137.72 721.862C135.38 723.087 133.041 724.359 130.701 725.583C129.486 726.243 128.226 726.902 127.011 727.562C127.236 728.504 127.326 729.493 127.191 730.435C127.056 731.519 126.471 732.555 125.706 733.309C125.481 733.544 125.212 733.733 124.942 733.968C124.177 734.628 123.322 735.193 122.422 735.617C121.252 736.135 119.992 736.229 118.777 735.805C116.797 735.099 115.493 733.309 115.088 731.283C114.908 730.671 114.818 730.058 114.818 729.446C114.863 726.761 116.708 724.641 119.047 723.793C120.037 723.417 121.162 723.275 122.197 723.37C122.737 723.37 123.232 723.464 123.727 723.605C124.627 723.841 125.302 724.359 125.797 725.018C128.451 723.04 131.151 721.061 133.806 719.13L135.74 717.717C134.84 715.126 134.3 712.394 134.166 709.521C131.286 709.521 128.406 709.474 125.526 709.427C124.132 709.427 122.737 709.427 121.387 709.427C121.162 710.369 120.847 711.311 120.307 712.064C119.677 712.959 118.732 713.619 117.697 713.902C117.382 713.996 117.067 714.043 116.753 714.09C115.808 714.325 114.773 714.42 113.783 714.326C112.523 714.231 111.353 713.713 110.498 712.724C109.058 711.122 108.698 708.956 109.238 706.93C109.328 706.318 109.508 705.705 109.823 705.14C111.038 702.785 113.603 701.796 116.078 702.173C117.113 702.314 118.147 702.738 119.092 703.303C119.542 703.539 119.992 703.868 120.352 704.245C121.027 704.905 121.432 705.658 121.567 706.506C124.807 706.035 128.046 705.611 131.286 705.14L134.39 704.716C134.705 702.031 135.38 699.488 136.37 697.085L136.055 696.897C133.401 695.437 130.791 693.976 128.136 692.516C126.921 691.857 125.706 691.15 124.447 690.491C123.862 691.244 123.142 691.904 122.332 692.328C121.387 692.846 120.262 692.94 119.227 692.705C118.912 692.657 118.597 692.563 118.282 692.422C117.337 692.186 116.392 691.762 115.538 691.197C114.458 690.491 113.648 689.454 113.288 688.183C112.703 686.11 113.333 683.943 114.728 682.436C115.088 681.918 115.538 681.494 116.033 681.117C118.147 679.61 120.847 679.986 122.872 681.494C123.727 682.106 124.492 683.001 125.032 683.943C125.347 684.414 125.572 684.885 125.751 685.403C126.066 686.298 126.066 687.146 125.841 687.994C128.901 689.172 132.006 690.302 135.065 691.48C136.235 691.904 137.405 692.375 138.575 692.799C139.925 690.679 141.545 688.795 143.389 687.146L142.984 686.487C141.275 683.896 139.61 681.352 137.9 678.762C137.135 677.584 136.325 676.359 135.56 675.182C134.705 675.559 133.761 675.794 132.861 675.794C131.781 675.794 130.746 675.323 129.936 674.664C129.666 674.475 129.441 674.24 129.216 673.957C128.451 673.25 127.821 672.45 127.326 671.555C126.696 670.424 126.426 669.105 126.651 667.786C127.056 665.667 128.586 664.065 130.476 663.358C131.016 663.076 131.601 662.887 132.186 662.84C134.75 662.511 136.955 664.159 138.125 666.467C138.62 667.457 138.89 668.587 138.935 669.67C138.98 670.236 138.98 670.754 138.935 671.319C138.845 672.261 138.44 673.015 137.855 673.674C140.06 676.171 142.31 678.715 144.514 681.211C145.414 682.247 146.314 683.237 147.214 684.273C149.239 683.048 151.443 682.059 153.783 681.399L153.693 680.552C153.333 677.443 152.928 674.381 152.568 671.272L152.028 666.938C151.084 666.844 150.184 666.609 149.374 666.185C148.429 665.667 147.709 664.772 147.259 663.735C147.124 663.406 147.034 663.123 146.944 662.793C146.584 661.804 146.359 660.768 146.314 659.779C146.224 658.46 146.584 657.188 147.394 656.152C148.699 654.456 150.724 653.749 152.703 654.079C153.288 654.079 153.918 654.22 154.458 654.456C156.843 655.398 158.148 657.942 158.103 660.532C158.103 661.616 157.878 662.793 157.428 663.782C157.248 664.301 157.023 664.772 156.708 665.243C156.213 666.043 155.538 666.514 154.728 666.797C155.583 670.094 156.483 673.392 157.338 676.689L158.373 680.646C159.048 680.599 159.723 680.552 160.442 680.552C162.197 680.552 163.907 680.74 165.572 681.07L165.752 680.552C166.787 677.631 167.822 674.711 168.857 671.79C169.351 670.424 169.801 669.058 170.296 667.692C169.531 667.174 168.811 666.514 168.272 665.714C167.687 664.772 167.417 663.641 167.462 662.558C167.462 662.228 167.507 661.898 167.597 661.568C167.687 660.532 168.002 659.496 168.362 658.554C168.857 657.329 169.757 656.387 170.926 655.822C172.816 654.927 174.931 655.304 176.551 656.528C177.091 656.811 177.541 657.235 177.946 657.706C179.655 659.731 179.655 662.558 178.53 664.866C178.035 665.808 177.316 666.75 176.506 667.409C176.101 667.786 175.696 668.116 175.246 668.352C174.436 668.823 173.626 668.917 172.816 668.776C172.141 672.12 171.466 675.464 170.791 678.809L170.071 682.436C172.411 683.425 174.616 684.697 176.596 686.298C178.8 684.179 181.005 682.106 183.21 679.986C184.245 678.997 185.235 678.055 186.27 677.066C185.82 676.218 185.46 675.276 185.37 674.381C185.235 673.25 185.505 672.12 186.045 671.178C186.225 670.895 186.405 670.613 186.63 670.33C187.169 669.482 187.889 668.681 188.654 668.022C189.644 667.174 190.859 666.75 192.119 666.844C194.189 666.986 195.899 668.352 196.798 670.189C197.113 670.707 197.383 671.272 197.518 671.884C198.148 674.475 196.933 677.019 194.864 678.526C194.009 679.138 192.974 679.61 191.939 679.798C191.444 679.939 190.904 680.033 190.409 680.033C189.509 680.033 188.699 679.751 188.069 679.233C186 681.87 183.93 684.508 181.86 687.146L180.015 689.501C181.815 691.527 183.3 693.882 184.425 696.426C187.08 695.672 189.689 694.966 192.344 694.212L196.348 693.081C196.348 692.092 196.393 691.103 196.708 690.255C197.068 689.219 197.833 688.324 198.733 687.759C199.003 687.57 199.318 687.429 199.588 687.288C200.443 686.769 201.433 686.44 202.378 686.204C203.593 685.969 204.897 686.11 205.977 686.816C207.777 687.947 208.677 689.972 208.677 692.045C208.767 692.657 208.677 693.317 208.587 693.929C208.002 696.567 205.797 698.216 203.323 698.545C202.288 698.687 201.163 698.593 200.128 698.263C199.633 698.122 199.138 697.98 198.643 697.698C197.833 697.274 197.248 696.614 196.888 695.861C193.874 697.18 190.859 698.545 187.889 699.864C187.259 700.147 186.585 700.43 185.955 700.759C186.54 703.068 186.899 705.517 186.899 708.061C186.899 708.532 186.899 709.05 186.899 709.521C189.329 710.086 191.759 710.651 194.144 711.217C195.493 711.546 196.843 711.829 198.193 712.159C198.598 711.264 199.093 710.463 199.768 709.803C200.578 709.05 201.613 708.626 202.648 708.579C202.963 708.579 203.278 708.579 203.638 708.579C204.627 708.579 205.662 708.72 206.562 709.003C207.777 709.38 208.812 710.133 209.487 711.264C210.567 713.101 210.522 715.362 209.577 717.199L209.487 717.058Z" fill="#21658B"/>
<path opacity="0.08" d="M1238.54 709.823C1238.13 710.861 1237.56 711.898 1236.9 712.763C1233.88 716.567 1228.98 717.259 1224.73 715.616C1222.93 714.924 1221.21 713.8 1219.82 712.33C1219.09 711.725 1218.43 710.947 1217.86 710.169C1216.88 708.786 1216.47 707.23 1216.55 705.587C1210.67 705.155 1204.7 704.636 1198.82 704.204C1198 704.204 1197.1 704.031 1196.28 704.031C1195.14 709.65 1193.09 714.924 1190.31 719.679L1199.88 728.152L1205.68 733.253C1206.99 732.129 1208.54 731.264 1210.09 730.832C1211.97 730.313 1214.02 730.573 1215.73 731.351C1216.31 731.61 1216.8 731.869 1217.29 732.215C1218.92 733.08 1220.48 734.204 1221.7 735.501C1223.34 737.143 1224.4 739.391 1224.56 741.812C1224.81 745.789 1222.93 749.42 1219.9 751.582C1219.09 752.36 1218.19 752.965 1217.12 753.397C1212.79 755.299 1208.13 753.483 1205.11 750.025C1203.8 748.555 1202.74 746.74 1202.17 744.752C1201.84 743.801 1201.51 742.849 1201.43 741.898C1201.19 740.169 1201.43 738.613 1202.25 737.23C1197.18 733.945 1192.11 730.659 1187.13 727.287L1185.74 726.336C1182.14 730.746 1177.81 734.463 1172.99 737.316C1174.54 741.207 1176.01 745.097 1177.56 748.988C1178.55 751.409 1179.53 753.916 1180.51 756.337C1182.14 755.991 1183.86 755.991 1185.49 756.337C1187.37 756.769 1189.09 757.979 1190.31 759.535C1190.72 760.054 1191.05 760.486 1191.3 761.092C1192.36 762.648 1193.26 764.377 1193.83 766.106C1194.57 768.441 1194.57 770.861 1193.67 773.109C1192.19 776.74 1188.93 779.075 1185.33 779.507C1184.27 779.766 1183.2 779.853 1182.06 779.766C1177.4 779.334 1174.05 775.53 1172.82 770.861C1172.33 768.959 1172.17 766.798 1172.5 764.723C1172.58 763.685 1172.74 762.734 1173.07 761.783C1173.64 760.141 1174.54 758.93 1175.85 757.979C1172.82 752.619 1169.8 747.172 1166.69 741.812L1166.04 740.602C1160.97 742.59 1155.5 743.628 1149.86 743.628L1148.88 756.423L1148.22 764.377C1149.86 764.896 1151.41 765.674 1152.64 766.798C1154.11 768.095 1155.09 769.997 1155.5 771.985C1155.58 772.59 1155.66 773.195 1155.74 773.801C1156.07 775.703 1155.99 777.691 1155.74 779.507C1155.41 781.928 1154.35 784.089 1152.55 785.645C1149.61 788.152 1145.77 788.585 1142.34 787.288C1141.27 787.028 1140.29 786.596 1139.31 785.991C1135.39 783.311 1134 778.296 1134.98 773.628C1135.39 771.639 1136.21 769.737 1137.35 768.008C1137.84 767.144 1138.5 766.365 1139.15 765.674C1140.38 764.463 1141.76 763.858 1143.24 763.685C1142.91 757.461 1142.5 751.149 1142.17 744.924L1142.17 743.109C1135.63 741.985 1129.59 739.564 1124.27 736.019C1121.74 739.737 1119.21 743.541 1116.67 747.259C1115.2 749.42 1113.73 751.582 1112.26 753.743C1113.4 755.04 1114.3 756.596 1114.87 758.239C1115.53 760.141 1115.45 762.302 1114.79 764.29C1114.63 764.896 1114.38 765.414 1114.06 766.02C1113.4 767.835 1112.42 769.478 1111.28 770.948C1109.81 772.85 1107.84 774.147 1105.56 774.492C1101.8 775.098 1098.28 773.368 1095.99 770.342C1095.18 769.564 1094.52 768.613 1094.11 767.576C1092.07 763.167 1093.3 758.066 1096.4 754.607C1097.71 753.138 1099.34 751.927 1101.14 751.149C1101.96 750.717 1102.86 750.371 1103.76 750.112C1105.39 749.766 1106.86 749.939 1108.25 750.63L1116.51 733.945L1117.9 731.178C1114.06 727.547 1110.79 723.31 1108.17 718.642C1103.92 720.889 1099.67 723.224 1095.42 725.472L1088.72 729.103C1089.13 730.832 1089.29 732.648 1089.05 734.377C1088.8 736.365 1087.74 738.267 1086.35 739.651C1085.94 740.083 1085.45 740.429 1084.96 740.861C1083.57 742.071 1082.02 743.109 1080.38 743.887C1078.26 744.838 1075.97 745.011 1073.76 744.233C1070.16 742.936 1067.79 739.65 1067.06 735.933C1066.73 734.809 1066.57 733.685 1066.57 732.561C1066.65 727.633 1070 723.743 1074.25 722.186C1076.05 721.495 1078.09 721.235 1079.97 721.408C1080.95 721.408 1081.85 721.581 1082.75 721.841C1084.39 722.273 1085.61 723.224 1086.51 724.434C1091.33 720.803 1096.24 717.172 1101.06 713.627L1104.57 711.034C1102.94 706.279 1101.96 701.264 1101.71 695.99C1096.48 695.99 1091.25 695.904 1086.02 695.817L1078.5 695.817C1078.09 697.46 1077.52 699.189 1076.54 700.572C1075.4 702.215 1073.68 703.425 1071.8 703.944C1071.23 704.117 1070.65 704.204 1070.08 704.29C1068.37 704.722 1066.49 704.895 1064.69 704.722C1062.4 704.549 1060.27 703.598 1058.72 701.783C1056.11 698.843 1055.45 694.866 1056.43 691.149C1056.6 690.025 1056.92 688.901 1057.5 687.863C1059.7 683.54 1064.36 681.725 1068.86 682.417C1070.74 682.676 1072.62 683.454 1074.33 684.492C1075.15 684.924 1075.97 685.529 1076.62 686.221C1077.85 687.431 1078.58 688.814 1078.83 690.371C1084.71 689.506 1090.6 688.728 1096.48 687.863L1102.12 687.085C1102.7 682.157 1103.92 677.489 1105.72 673.079L1105.15 672.733C1100.32 670.053 1095.58 667.373 1090.76 664.693C1088.55 663.483 1086.35 662.186 1084.06 660.975C1083 662.359 1081.69 663.569 1080.22 664.347C1078.5 665.298 1076.46 665.471 1074.58 665.039C1074.01 664.952 1073.43 664.78 1072.86 664.52C1071.15 664.088 1069.43 663.31 1067.88 662.272C1065.91 660.975 1064.44 659.074 1063.79 656.739C1062.73 652.935 1063.87 648.958 1066.4 646.192C1067.06 645.241 1067.88 644.462 1068.77 643.771C1072.62 641.004 1077.52 641.696 1081.2 644.462C1082.75 645.586 1084.14 647.229 1085.12 648.958C1085.69 649.823 1086.1 650.687 1086.43 651.638C1087 653.281 1087 654.837 1086.59 656.393C1092.15 658.555 1097.79 660.63 1103.35 662.791L1109.72 665.212C1112.18 661.321 1115.12 657.863 1118.47 654.837L1117.73 653.627C1114.63 648.872 1111.6 644.203 1108.5 639.448C1107.11 637.287 1105.64 635.039 1104.25 632.877C1102.69 633.569 1100.98 634.001 1099.34 634.001C1097.38 634.001 1095.5 633.136 1094.03 631.926C1093.54 631.58 1093.13 631.148 1092.72 630.629C1091.33 629.332 1090.19 627.863 1089.29 626.22C1088.15 624.145 1087.66 621.724 1088.06 619.304C1088.8 615.413 1091.58 612.473 1095.01 611.177C1095.99 610.658 1097.06 610.312 1098.12 610.226C1102.78 609.621 1106.78 612.646 1108.91 616.883C1109.81 618.698 1110.3 620.773 1110.38 622.762C1110.46 623.799 1110.54 624.75 1110.38 625.788C1110.21 627.517 1109.48 628.9 1108.42 630.111C1112.42 634.693 1116.51 639.361 1120.51 643.944C1122.15 645.846 1123.78 647.661 1125.42 649.563C1129.1 647.315 1133.1 645.5 1137.35 644.29L1137.19 642.733C1136.53 637.027 1135.8 631.407 1135.14 625.701C1134.82 623.021 1134.49 620.428 1134.16 617.747C1132.45 617.574 1130.81 617.142 1129.34 616.364C1127.62 615.413 1126.32 613.77 1125.5 611.868C1125.25 611.263 1125.09 610.744 1124.93 610.139C1124.27 608.324 1123.86 606.422 1123.78 604.606C1123.62 602.185 1124.27 599.851 1125.74 597.949C1128.11 594.836 1131.79 593.54 1135.39 594.145C1136.45 594.145 1137.6 594.404 1138.58 594.837C1142.91 596.566 1145.28 601.234 1145.2 605.989C1145.2 607.978 1144.79 610.139 1143.97 611.955C1143.64 612.906 1143.24 613.77 1142.66 614.635C1141.76 616.105 1140.54 616.969 1139.07 617.488C1140.62 623.54 1142.25 629.592 1143.81 635.644C1144.46 638.065 1145.03 640.485 1145.69 642.906C1146.91 642.82 1148.14 642.733 1149.45 642.733C1152.64 642.733 1155.74 643.079 1158.77 643.684L1159.09 642.733C1160.97 637.373 1162.85 632.013 1164.73 626.652C1165.63 624.145 1166.45 621.638 1167.35 619.131C1165.96 618.18 1164.65 616.969 1163.67 615.499C1162.61 613.77 1162.12 611.696 1162.2 609.707C1162.2 609.102 1162.28 608.496 1162.44 607.891C1162.61 605.989 1163.18 604.087 1163.83 602.358C1164.73 600.11 1166.37 598.381 1168.49 597.344C1171.92 595.701 1175.77 596.393 1178.71 598.641C1179.69 599.159 1180.51 599.938 1181.24 600.802C1184.35 604.52 1184.35 609.707 1182.31 613.943C1181.41 615.672 1180.1 617.402 1178.63 618.612C1177.89 619.304 1177.16 619.909 1176.34 620.341C1174.87 621.206 1173.4 621.378 1171.92 621.119C1170.7 627.257 1169.47 633.396 1168.25 639.534C1167.84 641.782 1167.35 643.944 1166.94 646.192C1171.19 648.007 1175.19 650.341 1178.79 653.281C1182.8 649.39 1186.8 645.586 1190.81 641.696C1192.69 639.88 1194.48 638.151 1196.36 636.335C1195.55 634.779 1194.89 633.05 1194.73 631.407C1194.48 629.332 1194.97 627.258 1195.95 625.528C1196.28 625.01 1196.61 624.491 1197.02 623.972C1198 622.416 1199.31 620.946 1200.7 619.736C1202.49 618.18 1204.7 617.402 1206.99 617.575C1210.75 617.834 1213.85 620.341 1215.49 623.713C1216.06 624.664 1216.55 625.701 1216.8 626.825C1217.94 631.58 1215.73 636.249 1211.97 639.016C1210.42 640.139 1208.54 641.004 1206.66 641.35C1205.76 641.609 1204.78 641.782 1203.88 641.782C1202.25 641.782 1200.78 641.263 1199.63 640.312L1188.35 654.837C1187.21 656.307 1186.15 657.69 1185 659.16C1188.27 662.878 1190.97 667.2 1193.01 671.869L1207.4 667.806C1209.85 667.114 1212.22 666.422 1214.67 665.73C1214.67 663.915 1214.75 662.099 1215.33 660.543C1215.98 658.641 1217.37 656.998 1219 655.961C1219.49 655.615 1220.07 655.356 1220.56 655.097C1222.11 654.146 1223.91 653.54 1225.62 653.108C1227.83 652.676 1230.2 652.935 1232.16 654.232C1235.43 656.307 1237.07 660.024 1237.07 663.828C1237.23 664.952 1237.07 666.163 1236.9 667.287C1235.84 672.128 1231.84 675.154 1227.34 675.759C1225.46 676.019 1223.42 675.846 1221.54 675.241C1220.64 674.981 1219.74 674.722 1218.84 674.203C1217.37 673.425 1216.31 672.215 1215.65 670.831C1210.18 673.339 1204.7 675.759 1199.31 678.267C1198.16 678.785 1196.94 679.304 1195.79 679.909C1196.85 684.146 1197.51 688.641 1197.51 693.31C1197.51 694.175 1197.51 695.126 1197.51 695.99C1201.92 697.028 1206.34 698.065 1210.67 699.103C1213.12 699.708 1215.57 700.226 1218.02 700.832C1218.76 699.189 1219.66 697.719 1220.88 696.509C1222.36 695.126 1224.24 694.348 1226.11 694.261C1226.69 694.261 1227.26 694.261 1227.91 694.261C1229.71 694.261 1231.59 694.52 1233.23 695.039C1235.43 695.731 1237.31 697.114 1238.54 699.189C1240.5 702.561 1240.42 706.711 1238.7 710.083L1238.54 709.823Z" fill="#0065C7"/>
<path opacity="0.08" d="M217.534 262.56C217.021 264.019 216.251 265.363 215.299 266.553C211.158 271.619 204.525 272.617 198.735 270.391C196.316 269.47 193.934 267.934 192.065 266.015C191.076 265.132 190.197 264.173 189.427 263.059C188.108 261.14 187.558 259.067 187.595 256.918C179.533 256.265 171.471 255.651 163.445 254.999C162.273 254.922 161.137 254.807 159.964 254.73C158.388 262.292 155.567 269.431 151.792 275.803C156.116 279.604 160.44 283.404 164.765 287.166C167.403 289.469 170.005 291.772 172.643 294.075C174.476 292.616 176.528 291.426 178.653 290.812C181.218 290.121 183.967 290.467 186.385 291.542C187.118 291.887 187.815 292.271 188.511 292.732C190.71 293.845 192.798 295.38 194.521 297.107C196.793 299.372 198.222 302.29 198.442 305.591C198.808 310.965 196.243 315.801 192.139 318.757C191.039 319.793 189.757 320.638 188.401 321.214C182.501 323.709 176.161 321.406 172.02 316.607C170.298 314.611 168.832 312.116 168.026 309.506C167.55 308.239 167.183 306.973 167 305.629C166.67 303.288 167.11 301.215 168.063 299.295C161.21 294.843 154.321 290.39 147.468 285.937C146.845 285.515 146.185 285.093 145.562 284.709C140.652 290.62 134.825 295.611 128.266 299.487C130.355 304.708 132.443 309.928 134.495 315.187C135.815 318.488 137.134 321.79 138.453 325.129C140.725 324.707 143.071 324.63 145.233 325.129C147.798 325.743 150.106 327.394 151.755 329.505C152.269 330.158 152.708 330.848 153.111 331.578C154.577 333.651 155.75 336.031 156.519 338.372C157.545 341.443 157.509 344.782 156.263 347.777C154.211 352.728 149.813 355.761 144.903 356.413C143.474 356.797 141.971 356.912 140.505 356.797C134.166 356.183 129.585 351.039 127.973 344.821C127.313 342.211 127.13 339.332 127.533 336.568C127.643 335.225 127.899 333.881 128.302 332.614C129.035 330.388 130.318 328.737 132.04 327.509C127.899 320.254 123.758 312.961 119.617 305.706L118.665 304.055C111.775 306.704 104.373 308.124 96.6041 308.163C96.1277 313.882 95.6879 319.64 95.2115 325.359C94.9184 328.929 94.6252 332.499 94.3687 336.069C96.5674 336.798 98.6929 337.835 100.379 339.37C102.394 341.136 103.713 343.708 104.263 346.395C104.41 347.201 104.519 348.045 104.556 348.89C104.959 351.423 104.959 354.11 104.593 356.567C104.116 359.791 102.651 362.747 100.232 364.82C96.2376 368.198 90.9973 368.812 86.3433 367.008C84.9142 366.662 83.5216 366.048 82.2757 365.204C76.9254 361.595 75.0932 354.84 76.4124 348.506C76.9621 345.857 78.0615 343.209 79.6739 340.982C80.3701 339.831 81.1763 338.794 82.0925 337.873C83.7049 336.261 85.6104 335.416 87.6259 335.148C87.1495 326.703 86.6731 318.258 86.1967 309.813L86.0502 307.318C77.2552 305.859 69.0467 302.558 61.7909 297.798C58.3462 302.827 54.8649 307.894 51.4202 312.922C49.4413 315.84 47.4258 318.757 45.447 321.674C46.9861 323.478 48.2687 325.513 49.0016 327.739C49.8444 330.349 49.7345 333.267 48.8917 335.839C48.6351 336.645 48.3053 337.412 47.9389 338.142C47.0228 340.522 45.7035 342.825 44.201 344.744C42.2222 347.278 39.5104 349.005 36.4322 349.466C31.3385 350.233 26.5379 347.93 23.4231 343.861C22.3603 342.786 21.4809 341.52 20.8212 340.138C17.9995 334.188 19.7585 327.394 23.9728 322.672C25.7317 320.715 28.0037 319.026 30.459 317.951C31.595 317.337 32.841 316.876 34.0869 316.569C36.2856 316.032 38.3011 316.339 40.17 317.222L51.3469 294.689L53.1792 290.966C47.9389 286.129 43.4681 280.41 39.9502 274.038C34.1602 277.109 28.3336 280.218 22.5436 283.289C19.502 284.901 16.4238 286.551 13.3822 288.164C13.9685 290.505 14.1884 292.924 13.8586 295.265C13.4555 297.99 12.0996 300.524 10.1941 302.405C9.60773 302.98 8.98476 303.518 8.32514 303.979C6.45622 305.667 4.29414 307.049 2.09541 308.047C-0.762936 309.353 -3.91444 309.583 -6.88272 308.508C-11.7566 306.742 -14.9814 302.366 -15.9708 297.261C-16.4472 295.802 -16.6671 294.229 -16.6304 292.693C-16.5205 286.052 -11.9764 280.832 -6.14982 278.721C-3.73122 277.838 -0.982805 277.416 1.65567 277.646C2.93826 277.646 4.22085 277.838 5.46679 278.183C7.62888 278.798 9.31456 280.026 10.5972 281.715C17.1933 276.84 23.8262 272.003 30.4224 267.128C32.0348 265.938 33.6105 264.787 35.2229 263.597C32.9875 257.225 31.595 250.431 31.2652 243.368C24.1193 243.291 17.0101 243.252 9.86425 243.176L-0.396482 243.061C-0.909519 245.402 -1.78901 247.705 -3.0716 249.586C-4.61071 251.813 -6.95602 253.386 -9.48455 254.154C-10.2541 254.384 -11.0237 254.538 -11.8299 254.653C-14.2118 255.267 -16.777 255.459 -19.1223 255.267C-22.2372 255.037 -25.1322 253.732 -27.2942 251.313C-30.8122 247.398 -31.765 241.947 -30.4091 236.957C-30.1892 235.422 -29.7128 233.925 -29.0166 232.581C-25.975 226.708 -19.672 224.328 -13.5522 225.211C-10.987 225.595 -8.38519 226.555 -6.14982 228.052C-5.01381 228.704 -3.95109 229.472 -2.9983 230.355C-1.31261 231.929 -0.396481 233.848 0.00662041 235.959C7.99533 234.846 16.0207 233.694 24.0094 232.581C26.5746 232.236 29.1398 231.852 31.7049 231.506C32.4745 224.866 34.1602 218.57 36.6154 212.659L35.8459 212.237C29.323 208.629 22.8367 205.02 16.3139 201.374C13.2723 199.685 10.2674 197.996 7.22578 196.345C5.72332 198.188 3.96433 199.8 1.98548 200.836C-0.359831 202.065 -3.14489 202.333 -5.71007 201.796C-6.47962 201.642 -7.24918 201.412 -8.01874 201.105C-10.4007 200.491 -12.746 199.416 -14.7615 198.111C-17.4 196.384 -19.4155 193.812 -20.295 190.664C-21.6875 185.482 -20.1484 180.185 -16.7404 176.423C-15.8609 175.156 -14.7615 174.081 -13.5522 173.199C-8.27525 169.475 -1.64243 170.358 3.378 174.12C5.46679 175.694 7.37236 177.805 8.6916 180.223C9.42451 181.336 10.0108 182.526 10.4872 183.793C11.2568 186.019 11.2934 188.131 10.6704 190.204C18.2561 193.082 25.8783 195.923 33.4639 198.802C36.3589 199.877 39.2173 200.952 42.1123 202.065C45.447 196.844 49.4413 192.123 53.9854 188.054C53.6189 187.517 53.2891 186.979 52.9227 186.442C48.7451 180.108 44.5309 173.736 40.3533 167.402C38.4111 164.447 36.4689 161.491 34.5266 158.535C32.4012 159.457 30.1292 160.032 27.8938 159.994C25.2553 159.994 22.6902 158.842 20.638 157.153C20.015 156.616 19.4287 156.04 18.879 155.426C17.0468 153.737 15.4344 151.664 14.1884 149.515C12.576 146.713 11.953 143.45 12.576 140.264C13.6021 134.967 17.3033 131.013 21.9939 129.324C23.3131 128.633 24.7789 128.172 26.2448 128.019C32.5478 127.251 38.0813 131.243 40.8663 137.001C42.039 139.419 42.8085 142.183 42.9184 144.985C43.065 146.329 43.1017 147.672 42.9184 149.016C42.6619 151.357 41.7092 153.277 40.28 154.812C45.7768 161.03 51.2736 167.211 56.7338 173.429C58.9692 175.962 61.2045 178.496 63.4399 180.991C68.4603 177.92 73.9205 175.54 79.6739 173.928L79.4173 171.817C78.5012 164.178 77.5851 156.501 76.6323 148.862C76.1925 145.292 75.7894 141.761 75.3497 138.191C73.0777 137.961 70.769 137.385 68.8268 136.272C66.5181 134.967 64.6859 132.74 63.6231 130.245C63.2933 129.477 63.0368 128.671 62.8169 127.865C61.9374 125.447 61.3878 122.837 61.2412 120.342C61.058 117.079 61.9008 113.893 63.8797 111.321C67.1045 107.137 72.1249 105.41 77.0354 106.177C78.5012 106.177 80.0037 106.523 81.3595 107.06C87.2961 109.402 90.4476 115.659 90.3743 122.107C90.3743 124.794 89.788 127.635 88.6886 130.168C88.2489 131.435 87.6626 132.625 86.9297 133.738C85.6471 135.696 83.998 136.924 82.0192 137.615C84.1812 145.791 86.3067 153.929 88.4688 162.105C89.3116 165.368 90.1911 168.631 91.034 171.894C92.7196 171.74 94.4053 171.702 96.1277 171.702C100.488 171.702 104.703 172.162 108.807 173.007L109.283 171.663C111.849 164.408 114.377 157.192 116.942 149.937C118.115 146.559 119.324 143.22 120.497 139.842C118.555 138.536 116.796 136.924 115.55 135.005C114.047 132.74 113.424 129.9 113.608 127.136C113.644 126.291 113.791 125.485 113.937 124.641C114.194 122.069 114.89 119.497 115.843 117.232C117.089 114.238 119.251 111.82 122.146 110.515C126.873 108.365 132.077 109.248 136.071 112.281C137.39 113.01 138.563 114.008 139.553 115.16C143.803 120.111 143.84 127.174 140.945 132.855C139.736 135.235 138.013 137.5 135.888 139.189C134.935 140.11 133.872 140.878 132.736 141.53C130.758 142.644 128.705 142.951 126.69 142.605C125.004 150.897 123.319 159.149 121.633 167.441L119.801 176.385C125.627 178.765 131.051 182.027 135.925 185.981C141.348 180.799 146.808 175.579 152.232 170.397C154.76 167.978 157.289 165.56 159.817 163.142C158.681 161.069 157.802 158.766 157.545 156.463C157.216 153.737 157.912 150.897 159.268 148.555C159.671 147.826 160.147 147.173 160.66 146.521C162.016 144.371 163.775 142.413 165.607 140.878C168.026 138.844 171.031 137.73 174.146 137.961C179.276 138.306 183.527 141.646 185.762 146.252C186.605 147.519 187.228 148.977 187.558 150.474C189.134 156.923 186.092 163.18 180.999 166.865C178.873 168.4 176.345 169.552 173.743 170.051C172.497 170.397 171.214 170.588 169.932 170.588C167.696 170.588 165.754 169.898 164.105 168.631C158.975 175.156 153.844 181.682 148.714 188.246C147.211 190.165 145.672 192.084 144.17 194.042C148.567 199.109 152.232 204.828 155.054 211.124C161.576 209.32 168.099 207.477 174.622 205.673L184.553 202.909C184.443 200.491 184.7 198.073 185.469 195.885C186.385 193.313 188.254 191.125 190.49 189.705C191.186 189.282 191.882 188.898 192.615 188.553C194.777 187.325 197.159 186.403 199.505 185.943C202.546 185.29 205.698 185.751 208.373 187.478C212.77 190.28 215.079 195.27 215.006 200.452C215.189 201.988 215.079 203.562 214.749 205.059C213.32 211.546 207.86 215.615 201.74 216.459C199.175 216.805 196.426 216.613 193.898 215.807C192.652 215.5 191.406 215.077 190.27 214.463C188.254 213.388 186.862 211.815 185.946 209.895C178.507 213.235 171.104 216.536 163.665 219.876C162.053 220.605 160.44 221.296 158.828 222.025C160.331 227.783 161.137 233.81 161.137 240.066C161.137 241.256 161.137 242.446 161.063 243.636C167.037 245.018 173.046 246.4 179.02 247.82C182.354 248.588 185.689 249.356 189.061 250.162C190.013 247.974 191.333 245.939 192.982 244.366C194.924 242.523 197.526 241.487 200.164 241.295C200.97 241.218 201.777 241.256 202.546 241.295C205.001 241.218 207.53 241.602 209.802 242.293C212.807 243.214 215.372 245.133 217.021 247.935C219.696 252.542 219.55 258.069 217.241 262.637L217.534 262.56Z" fill="#04A3A7"/>
<path opacity="0.05" d="M1011.7 259.231C1011.24 260.528 1010.56 261.723 1009.71 262.781C1006.04 267.288 1000.15 268.175 995.005 266.195C992.857 265.376 990.742 264.01 989.082 262.304C988.204 261.518 987.423 260.665 986.739 259.675C985.568 257.968 985.08 256.125 985.112 254.213C977.953 253.633 970.794 253.087 963.667 252.506C962.626 252.438 961.617 252.336 960.576 252.267C959.177 258.992 956.671 265.342 953.319 271.008C957.159 274.388 960.999 277.768 964.839 281.113C967.182 283.161 969.492 285.209 971.835 287.258C973.462 285.96 975.285 284.902 977.172 284.356C979.45 283.742 981.891 284.049 984.038 285.005C984.689 285.312 985.307 285.653 985.926 286.063C987.878 287.053 989.733 288.418 991.262 289.954C993.28 291.968 994.549 294.563 994.744 297.499C995.07 302.278 992.792 306.579 989.147 309.208C988.171 310.129 987.032 310.88 985.828 311.392C980.589 313.611 974.959 311.563 971.282 307.296C969.753 305.521 968.451 303.302 967.735 300.981C967.312 299.854 966.987 298.728 966.824 297.533C966.531 295.45 966.922 293.607 967.768 291.9C961.682 287.94 955.565 283.98 949.48 280.021C948.926 279.645 948.341 279.27 947.787 278.928C943.427 284.185 938.253 288.623 932.428 292.071C934.283 296.714 936.138 301.356 937.96 306.033C939.131 308.969 940.303 311.904 941.474 314.874C943.492 314.499 945.575 314.431 947.495 314.874C949.772 315.421 951.823 316.888 953.287 318.766C953.742 319.346 954.133 319.961 954.491 320.609C955.793 322.453 956.834 324.569 957.517 326.651C958.428 329.382 958.396 332.352 957.289 335.015C955.467 339.419 951.562 342.115 947.202 342.696C945.933 343.037 944.598 343.14 943.297 343.037C937.667 342.491 933.599 337.917 932.168 332.387C931.582 330.065 931.419 327.505 931.777 325.047C931.875 323.852 932.103 322.657 932.461 321.531C933.111 319.551 934.25 318.083 935.78 316.991C932.103 310.539 928.425 304.053 924.748 297.601L923.902 296.133C917.784 298.489 911.211 299.752 904.312 299.786C903.889 304.872 903.499 309.993 903.076 315.079C902.816 318.254 902.555 321.429 902.327 324.603C904.28 325.252 906.167 326.174 907.664 327.539C909.454 329.109 910.625 331.397 911.114 333.786C911.244 334.503 911.341 335.254 911.374 336.005C911.732 338.258 911.732 340.648 911.406 342.832C910.983 345.7 909.682 348.328 907.534 350.172C903.987 353.176 899.334 353.722 895.201 352.118C893.932 351.81 892.695 351.264 891.589 350.513C886.838 347.304 885.211 341.296 886.382 335.664C886.87 333.308 887.847 330.953 889.278 328.973C889.897 327.949 890.613 327.027 891.426 326.208C892.858 324.774 894.55 324.023 896.34 323.784C895.917 316.274 895.494 308.764 895.071 301.254L894.941 299.035C887.131 297.738 879.841 294.802 873.398 290.569C870.339 295.041 867.248 299.547 864.189 304.019C862.432 306.613 860.642 309.208 858.885 311.802C860.252 313.406 861.391 315.216 862.041 317.196C862.79 319.517 862.692 322.111 861.944 324.399C861.716 325.115 861.423 325.798 861.098 326.447C860.284 328.563 859.113 330.611 857.779 332.318C856.021 334.571 853.613 336.107 850.88 336.517C846.357 337.2 842.094 335.152 839.328 331.533C838.384 330.577 837.603 329.451 837.017 328.222C834.512 322.931 836.074 316.888 839.816 312.69C841.378 310.949 843.395 309.447 845.576 308.491C846.584 307.945 847.691 307.535 848.797 307.262C850.75 306.784 852.539 307.057 854.199 307.842L864.124 287.804L865.751 284.493C861.098 280.191 857.128 275.105 854.004 269.438C848.862 272.169 843.688 274.934 838.547 277.665C835.846 279.099 833.112 280.567 830.411 282.001C830.932 284.083 831.127 286.233 830.834 288.316C830.476 290.74 829.272 292.993 827.58 294.665C827.06 295.177 826.506 295.655 825.921 296.065C824.261 297.567 822.341 298.796 820.389 299.683C817.851 300.844 815.052 301.049 812.416 300.093C808.088 298.523 805.225 294.631 804.346 290.091C803.923 288.794 803.728 287.394 803.76 286.029C803.858 280.123 807.893 275.48 813.067 273.603C815.215 272.818 817.655 272.442 819.998 272.647C821.137 272.647 822.276 272.818 823.383 273.125C825.302 273.671 826.799 274.764 827.938 276.266C833.796 271.93 839.686 267.629 845.543 263.293C846.975 262.235 848.374 261.211 849.806 260.153C847.821 254.486 846.584 248.444 846.291 242.163C839.946 242.094 833.633 242.06 827.287 241.992L818.176 241.89C817.72 243.972 816.939 246.02 815.8 247.693C814.434 249.673 812.351 251.073 810.106 251.755C809.422 251.96 808.739 252.097 808.023 252.199C805.908 252.745 803.63 252.916 801.547 252.745C798.781 252.54 796.211 251.38 794.291 249.229C791.167 245.747 790.321 240.9 791.525 236.462C791.72 235.096 792.143 233.765 792.761 232.57C795.462 227.347 801.059 225.231 806.494 226.016C808.772 226.357 811.082 227.211 813.067 228.542C814.076 229.123 815.019 229.805 815.866 230.59C817.362 231.99 818.176 233.697 818.534 235.574C825.628 234.584 832.754 233.56 839.848 232.57C842.126 232.263 844.404 231.922 846.682 231.614C847.365 225.709 848.862 220.11 851.043 214.853L850.359 214.478C844.567 211.269 838.807 208.06 833.015 204.817C830.314 203.315 827.645 201.813 824.944 200.345C823.61 201.984 822.048 203.417 820.291 204.339C818.208 205.432 815.735 205.671 813.457 205.193C812.774 205.056 812.091 204.851 811.407 204.578C809.292 204.032 807.21 203.076 805.42 201.915C803.077 200.379 801.287 198.092 800.506 195.293C799.27 190.684 800.636 185.974 803.663 182.628C804.444 181.502 805.42 180.546 806.494 179.761C811.18 176.449 817.07 177.235 821.528 180.58C823.383 181.98 825.075 183.857 826.246 186.008C826.897 186.998 827.418 188.056 827.841 189.182C828.524 191.162 828.557 193.04 828.003 194.883C834.739 197.444 841.508 199.97 848.244 202.53C850.815 203.486 853.353 204.442 855.924 205.432C858.885 200.789 862.432 196.59 866.467 192.972C866.142 192.494 865.849 192.016 865.523 191.538C861.814 185.905 858.071 180.239 854.362 174.606C852.637 171.977 850.912 169.349 849.188 166.72C847.3 167.54 845.283 168.052 843.298 168.018C840.955 168.018 838.677 166.993 836.855 165.491C836.301 165.014 835.781 164.502 835.293 163.955C833.666 162.453 832.234 160.61 831.127 158.698C829.695 156.206 829.142 153.305 829.695 150.471C830.607 145.76 833.893 142.244 838.059 140.742C839.23 140.128 840.532 139.718 841.833 139.582C847.43 138.899 852.344 142.449 854.817 147.57C855.859 149.72 856.542 152.178 856.64 154.67C856.77 155.865 856.802 157.06 856.64 158.254C856.412 160.337 855.566 162.044 854.297 163.409C859.178 168.939 864.059 174.435 868.908 179.966C870.893 182.219 872.878 184.471 874.863 186.69C879.321 183.959 884.169 181.843 889.278 180.409L889.051 178.532C888.237 171.738 887.424 164.911 886.577 158.118C886.187 154.943 885.829 151.803 885.439 148.628C883.421 148.423 881.371 147.911 879.646 146.921C877.596 145.76 875.969 143.78 875.025 141.562C874.732 140.879 874.505 140.162 874.309 139.445C873.528 137.294 873.04 134.973 872.91 132.754C872.747 129.853 873.496 127.019 875.253 124.732C878.117 121.011 882.575 119.475 886.935 120.158C888.237 120.158 889.571 120.465 890.775 120.943C896.047 123.025 898.845 128.589 898.78 134.324C898.78 136.714 898.26 139.24 897.284 141.493C896.893 142.62 896.372 143.678 895.722 144.668C894.583 146.409 893.118 147.501 891.361 148.116C893.281 155.387 895.168 162.624 897.088 169.895C897.837 172.797 898.618 175.698 899.366 178.6C900.863 178.463 902.36 178.429 903.889 178.429C907.762 178.429 911.504 178.839 915.149 179.59L915.572 178.395C917.85 171.943 920.095 165.526 922.373 159.074C923.414 156.07 924.488 153.1 925.529 150.096C923.805 148.935 922.243 147.501 921.136 145.794C919.802 143.78 919.249 141.254 919.411 138.796C919.444 138.045 919.574 137.329 919.704 136.577C919.932 134.29 920.55 132.003 921.397 129.989C922.503 127.326 924.423 125.176 926.994 124.015C931.191 122.103 935.812 122.889 939.359 125.585C940.531 126.234 941.572 127.122 942.451 128.146C946.225 132.549 946.258 138.831 943.687 143.883C942.613 145.999 941.084 148.013 939.197 149.515C938.35 150.335 937.407 151.017 936.398 151.598C934.641 152.588 932.818 152.861 931.029 152.554C929.532 159.927 928.035 167.267 926.538 174.64L924.911 182.594C930.085 184.71 934.901 187.612 939.229 191.128C944.045 186.52 948.894 181.877 953.71 177.269C955.955 175.118 958.201 172.967 960.446 170.817C959.437 168.973 958.656 166.925 958.428 164.877C958.135 162.453 958.754 159.927 959.958 157.845C960.316 157.196 960.739 156.616 961.194 156.036C962.398 154.124 963.96 152.383 965.587 151.017C967.735 149.208 970.404 148.218 973.17 148.423C977.725 148.73 981.5 151.7 983.485 155.797C984.234 156.923 984.787 158.22 985.08 159.552C986.479 165.287 983.778 170.851 979.255 174.128C977.367 175.494 975.122 176.518 972.812 176.961C971.705 177.269 970.566 177.439 969.427 177.439C967.442 177.439 965.718 176.825 964.253 175.698C959.697 181.502 955.142 187.305 950.586 193.142C949.252 194.849 947.885 196.556 946.551 198.297C950.456 202.803 953.71 207.889 956.216 213.488C962.008 211.883 967.8 210.245 973.593 208.64L982.411 206.183C982.314 204.032 982.541 201.881 983.225 199.935C984.038 197.648 985.698 195.703 987.683 194.44C988.301 194.064 988.919 193.723 989.57 193.415C991.49 192.323 993.605 191.504 995.688 191.094C998.389 190.514 1001.19 190.923 1003.56 192.46C1007.47 194.952 1009.52 199.389 1009.45 203.998C1009.62 205.363 1009.52 206.763 1009.23 208.094C1007.96 213.863 1003.11 217.482 997.673 218.233C995.395 218.54 992.955 218.369 990.709 217.653C989.603 217.379 988.496 217.004 987.488 216.458C985.698 215.502 984.461 214.102 983.648 212.396C977.042 215.365 970.469 218.301 963.863 221.271C962.431 221.92 960.999 222.534 959.567 223.183C960.902 228.303 961.617 233.663 961.617 239.227C961.617 240.285 961.617 241.343 961.552 242.402C966.857 243.631 972.193 244.86 977.497 246.123C980.459 246.805 983.42 247.488 986.414 248.205C987.26 246.259 988.431 244.45 989.896 243.05C991.62 241.412 993.931 240.49 996.274 240.319C996.99 240.251 997.706 240.285 998.389 240.319C1000.57 240.251 1002.81 240.592 1004.83 241.207C1007.5 242.026 1009.78 243.733 1011.24 246.225C1013.62 250.321 1013.49 255.237 1011.44 259.3L1011.7 259.231Z" fill="#3059A2"/>
<path opacity="0.5" d="M822.619 108.634C822.485 109.013 822.285 109.361 822.038 109.67C820.961 110.985 819.236 111.244 817.731 110.666C817.102 110.427 816.483 110.029 815.997 109.531C815.74 109.302 815.511 109.052 815.311 108.764C814.968 108.265 814.825 107.727 814.835 107.17C812.739 107 810.642 106.841 808.556 106.671C808.251 106.651 807.956 106.622 807.651 106.602C807.241 108.564 806.507 110.417 805.526 112.071C806.65 113.057 807.775 114.044 808.899 115.02C809.585 115.618 810.261 116.216 810.947 116.813C811.424 116.435 811.957 116.126 812.51 115.967C813.177 115.787 813.891 115.877 814.52 116.156C814.711 116.246 814.892 116.345 815.073 116.465C815.645 116.754 816.188 117.152 816.635 117.6C817.226 118.188 817.598 118.945 817.655 119.802C817.75 121.197 817.083 122.452 816.016 123.219C815.73 123.488 815.397 123.708 815.044 123.857C813.51 124.505 811.862 123.907 810.785 122.661C810.338 122.143 809.956 121.496 809.747 120.818C809.623 120.49 809.528 120.161 809.48 119.812C809.394 119.204 809.509 118.666 809.756 118.168C807.975 117.013 806.183 115.857 804.402 114.701C804.24 114.592 804.068 114.482 803.906 114.382C802.629 115.917 801.115 117.212 799.409 118.218C799.952 119.573 800.495 120.928 801.029 122.293C801.372 123.15 801.715 124.006 802.058 124.873C802.649 124.764 803.258 124.744 803.82 124.873C804.487 125.033 805.088 125.461 805.516 126.009C805.65 126.178 805.764 126.358 805.869 126.547C806.25 127.085 806.555 127.703 806.755 128.31C807.022 129.107 807.012 129.974 806.688 130.751C806.155 132.036 805.011 132.823 803.735 132.993C803.363 133.092 802.972 133.122 802.591 133.092C800.943 132.933 799.752 131.598 799.333 129.984C799.161 129.307 799.114 128.559 799.219 127.842C799.247 127.493 799.314 127.145 799.419 126.816C799.609 126.238 799.943 125.81 800.39 125.491C799.314 123.608 798.237 121.715 797.161 119.832L796.913 119.404C795.122 120.091 793.197 120.46 791.177 120.47C791.053 121.954 790.939 123.449 790.815 124.933C790.739 125.859 790.663 126.786 790.596 127.713C791.168 127.902 791.72 128.171 792.158 128.569C792.682 129.028 793.025 129.695 793.168 130.393C793.206 130.602 793.235 130.821 793.245 131.04C793.349 131.698 793.349 132.395 793.254 133.033C793.13 133.869 792.749 134.637 792.12 135.175C791.082 136.051 789.719 136.211 788.509 135.742C788.138 135.653 787.776 135.493 787.452 135.274C786.061 134.338 785.584 132.584 785.927 130.94C786.07 130.253 786.356 129.566 786.775 128.988C786.956 128.689 787.166 128.42 787.404 128.181C787.823 127.762 788.319 127.543 788.843 127.473C788.719 125.282 788.595 123.09 788.471 120.898L788.433 120.25C786.146 119.872 784.012 119.015 782.126 117.78C781.23 119.085 780.325 120.4 779.429 121.705C778.915 122.462 778.391 123.219 777.876 123.977C778.276 124.445 778.61 124.973 778.8 125.551C779.02 126.228 778.991 126.985 778.772 127.653C778.705 127.862 778.619 128.061 778.524 128.251C778.286 128.868 777.943 129.466 777.552 129.964C777.038 130.622 776.333 131.07 775.532 131.19C774.208 131.389 772.96 130.791 772.15 129.735C771.874 129.456 771.645 129.127 771.474 128.769C770.74 127.224 771.197 125.461 772.293 124.236C772.75 123.727 773.341 123.289 773.979 123.01C774.275 122.851 774.599 122.731 774.923 122.651C775.494 122.512 776.018 122.592 776.504 122.821L779.41 116.973L779.887 116.006C778.524 114.751 777.362 113.267 776.447 111.613C774.942 112.41 773.427 113.217 771.921 114.014C771.131 114.432 770.33 114.861 769.539 115.279C769.692 115.887 769.749 116.514 769.663 117.122C769.558 117.83 769.206 118.487 768.71 118.975C768.558 119.125 768.396 119.264 768.225 119.384C767.739 119.822 767.176 120.181 766.605 120.44C765.862 120.779 765.042 120.838 764.27 120.559C763.003 120.101 762.165 118.965 761.908 117.64C761.784 117.262 761.727 116.853 761.736 116.455C761.765 114.731 762.946 113.376 764.461 112.828C765.09 112.599 765.804 112.49 766.49 112.549C766.824 112.549 767.157 112.599 767.481 112.689C768.044 112.848 768.482 113.167 768.815 113.605C770.53 112.34 772.255 111.085 773.97 109.82C774.389 109.511 774.799 109.212 775.218 108.903C774.637 107.249 774.275 105.486 774.189 103.653C772.331 103.633 770.483 103.623 768.625 103.603L765.957 103.573C765.824 104.181 765.595 104.778 765.261 105.267C764.861 105.844 764.251 106.253 763.594 106.452C763.394 106.512 763.194 106.552 762.984 106.582C762.365 106.741 761.698 106.791 761.088 106.741C760.278 106.681 759.526 106.343 758.963 105.715C758.049 104.699 757.801 103.284 758.154 101.989C758.211 101.59 758.335 101.202 758.516 100.853C759.306 99.3288 760.945 98.7112 762.536 98.9403C763.203 99.0399 763.88 99.289 764.461 99.6775C764.756 99.8469 765.033 100.046 765.28 100.275C765.719 100.684 765.957 101.182 766.062 101.73C768.139 101.441 770.225 101.142 772.302 100.853C772.969 100.763 773.636 100.664 774.303 100.574C774.503 98.8506 774.942 97.2168 775.58 95.6825L775.38 95.5729C773.684 94.6364 771.998 93.7 770.302 92.7535C769.511 92.3151 768.73 91.8768 767.939 91.4484C767.548 91.9266 767.091 92.345 766.576 92.614C765.966 92.9328 765.242 93.0026 764.575 92.8631C764.375 92.8232 764.175 92.7635 763.975 92.6838C763.356 92.5243 762.746 92.2454 762.222 91.9067C761.536 91.4583 761.012 90.7908 760.783 89.9739C760.421 88.6289 760.821 87.2541 761.708 86.2778C761.936 85.949 762.222 85.67 762.536 85.4409C763.908 84.4745 765.633 84.7036 766.938 85.68C767.481 86.0885 767.977 86.6364 768.32 87.264C768.51 87.553 768.663 87.8618 768.787 88.1906C768.987 88.7684 768.996 89.3164 768.834 89.8544C770.807 90.6016 772.788 91.3388 774.761 92.086C775.513 92.3649 776.256 92.6439 777.009 92.9328C777.876 91.5779 778.915 90.3525 780.096 89.2964C780.001 89.157 779.915 89.0175 779.82 88.878C778.734 87.2342 777.638 85.5804 776.552 83.9365C776.047 83.1694 775.542 82.4023 775.037 81.6351C774.484 81.8742 773.894 82.0237 773.312 82.0137C772.626 82.0137 771.959 81.7148 771.426 81.2765C771.264 81.137 771.111 80.9876 770.969 80.8282C770.492 80.3898 770.073 79.8518 769.749 79.2939C769.33 78.5666 769.168 77.7198 769.33 76.8929C769.597 75.518 770.559 74.4919 771.778 74.0535C772.121 73.8742 772.503 73.7546 772.884 73.7148C774.522 73.5155 775.961 74.5517 776.685 76.0461C776.99 76.6737 777.19 77.391 777.219 78.1183C777.257 78.467 777.266 78.8157 777.219 79.1644C777.152 79.7721 776.904 80.2702 776.533 80.6688C777.962 82.2827 779.391 83.8867 780.811 85.5007C781.392 86.1582 781.973 86.8157 782.554 87.4633C783.86 86.6663 785.279 86.0486 786.775 85.6302L786.709 85.0822C786.47 83.0996 786.232 81.1071 785.984 79.1245C785.87 78.198 785.765 77.2814 785.651 76.3549C785.06 76.2951 784.46 76.1457 783.955 75.8568C783.355 75.518 782.878 74.9402 782.602 74.2926C782.516 74.0934 782.45 73.8841 782.392 73.6749C782.164 73.0473 782.021 72.3698 781.983 71.7223C781.935 70.8754 782.154 70.0485 782.669 69.381C783.507 68.2951 784.812 67.8468 786.089 68.046C786.47 68.046 786.861 68.1357 787.213 68.2752C788.757 68.8829 789.576 70.5068 789.557 72.1805C789.557 72.8779 789.405 73.6152 789.119 74.2727C789.005 74.6015 788.852 74.9103 788.662 75.1992C788.328 75.7073 787.899 76.0261 787.385 76.2055C787.947 78.3275 788.5 80.4396 789.062 82.5617C789.281 83.4085 789.51 84.2553 789.729 85.1021C790.167 85.0623 790.605 85.0523 791.053 85.0523C792.187 85.0523 793.283 85.1719 794.35 85.3911L794.474 85.0424C795.141 83.1594 795.798 81.2864 796.465 79.4035C796.77 78.5268 797.084 77.66 797.389 76.7833C796.884 76.4446 796.427 76.0261 796.103 75.528C795.712 74.9402 795.55 74.2029 795.598 73.4856C795.607 73.2665 795.646 73.0572 795.684 72.8381C795.75 72.1706 795.931 71.5031 796.179 70.9153C796.503 70.1382 797.065 69.5105 797.818 69.1718C799.047 68.6139 800.4 68.843 801.439 69.6301C801.782 69.8194 802.086 70.0784 802.344 70.3773C803.449 71.6625 803.458 73.4956 802.706 74.9701C802.391 75.5878 801.943 76.1756 801.391 76.6139C801.143 76.853 800.867 77.0523 800.571 77.2216C800.057 77.5106 799.523 77.5903 798.999 77.5006C798.561 79.6525 798.123 81.7945 797.685 83.9465L797.208 86.2678C798.723 86.8855 800.133 87.7323 801.4 88.7585C802.811 87.4135 804.23 86.0586 805.64 84.7136C806.298 84.086 806.955 83.4583 807.613 82.8306C807.317 82.2927 807.089 81.6949 807.022 81.0971C806.936 80.3898 807.117 79.6526 807.47 79.0448C807.574 78.8555 807.698 78.6862 807.832 78.5168C808.184 77.9589 808.642 77.4508 809.118 77.0523C809.747 76.5243 810.528 76.2353 811.338 76.2951C812.672 76.3848 813.777 77.2515 814.358 78.4471C814.577 78.7758 814.739 79.1544 814.825 79.543C815.235 81.2167 814.444 82.8406 813.12 83.797C812.567 84.1955 811.91 84.4944 811.233 84.6239C810.909 84.7136 810.576 84.7634 810.242 84.7634C809.661 84.7634 809.156 84.5841 808.727 84.2553C807.393 85.949 806.06 87.6426 804.726 89.3462C804.335 89.8444 803.935 90.3425 803.544 90.8506C804.688 92.1657 805.64 93.6501 806.374 95.284C808.07 94.8158 809.766 94.3376 811.462 93.8693L814.044 93.152C814.015 92.5244 814.082 91.8967 814.282 91.3288C814.52 90.6613 815.006 90.0935 815.587 89.7248C815.768 89.6152 815.949 89.5156 816.14 89.4259C816.702 89.1071 817.321 88.868 817.931 88.7485C818.722 88.5791 819.541 88.6987 820.237 89.147C821.38 89.8743 821.98 91.1694 821.961 92.5144C822.009 92.9129 821.98 93.3214 821.895 93.7099C821.523 95.3936 820.104 96.4496 818.512 96.6688C817.845 96.7585 817.131 96.7087 816.473 96.4994C816.149 96.4197 815.826 96.3102 815.53 96.1507C815.006 95.8718 814.644 95.4634 814.406 94.9652C812.472 95.832 810.547 96.6887 808.613 97.5555C808.194 97.7448 807.775 97.9241 807.355 98.1134C807.746 99.6078 807.956 101.172 807.956 102.796C807.956 103.105 807.956 103.414 807.936 103.722C809.49 104.081 811.052 104.44 812.605 104.808C813.472 105.008 814.339 105.207 815.216 105.416C815.463 104.848 815.806 104.32 816.235 103.912C816.74 103.433 817.417 103.165 818.103 103.115C818.312 103.095 818.522 103.105 818.722 103.115C819.36 103.095 820.018 103.194 820.608 103.374C821.39 103.613 822.057 104.111 822.485 104.838C823.181 106.034 823.143 107.468 822.543 108.654L822.619 108.634Z" fill="white"/>
<path opacity="0.25" d="M822.396 408.536C822.185 409.138 821.868 409.691 821.475 410.182C819.769 412.271 817.036 412.682 814.651 411.764C813.654 411.385 812.673 410.752 811.903 409.96C811.495 409.597 811.133 409.201 810.816 408.742C810.272 407.951 810.046 407.096 810.061 406.21C806.739 405.941 803.418 405.688 800.111 405.419C799.628 405.388 799.16 405.34 798.677 405.308C798.028 408.426 796.865 411.369 795.31 413.995C797.092 415.562 798.873 417.128 800.655 418.679C801.742 419.628 802.814 420.578 803.901 421.527C804.656 420.926 805.501 420.435 806.377 420.182C807.434 419.897 808.566 420.04 809.563 420.483C809.865 420.625 810.152 420.783 810.438 420.973C811.344 421.432 812.205 422.065 812.915 422.777C813.851 423.711 814.439 424.913 814.53 426.274C814.681 428.489 813.624 430.483 811.933 431.701C811.48 432.129 810.952 432.477 810.393 432.714C807.962 433.743 805.35 432.793 803.644 430.815C802.935 429.992 802.331 428.964 801.999 427.888C801.802 427.366 801.651 426.844 801.576 426.29C801.44 425.325 801.621 424.47 802.014 423.679C799.191 421.844 796.352 420.008 793.529 418.173C793.272 417.999 793 417.825 792.744 417.666C790.721 420.103 788.32 422.16 785.617 423.758C786.478 425.91 787.339 428.062 788.184 430.23C788.728 431.591 789.271 432.951 789.815 434.328C790.751 434.154 791.717 434.122 792.608 434.328C793.665 434.581 794.616 435.262 795.295 436.132C795.507 436.401 795.688 436.686 795.854 436.986C796.458 437.841 796.941 438.822 797.258 439.787C797.681 441.053 797.666 442.429 797.152 443.664C796.307 445.705 794.495 446.955 792.472 447.224C791.883 447.382 791.264 447.43 790.66 447.382C788.048 447.129 786.161 445.009 785.497 442.445C785.225 441.369 785.149 440.183 785.316 439.043C785.361 438.489 785.467 437.936 785.633 437.413C785.935 436.496 786.463 435.815 787.173 435.309C785.466 432.318 783.76 429.312 782.054 426.322L781.662 425.641C778.823 426.733 775.774 427.318 772.573 427.334C772.377 429.692 772.195 432.065 771.999 434.423C771.878 435.894 771.758 437.366 771.652 438.838C772.558 439.138 773.433 439.565 774.128 440.198C774.958 440.926 775.502 441.986 775.728 443.094C775.789 443.426 775.834 443.774 775.849 444.123C776.015 445.167 776.015 446.274 775.864 447.287C775.668 448.616 775.064 449.835 774.068 450.689C772.422 452.082 770.263 452.335 768.345 451.591C767.757 451.449 767.183 451.195 766.67 450.847C764.465 449.36 763.71 446.575 764.254 443.964C764.48 442.872 764.933 441.781 765.598 440.863C765.884 440.388 766.217 439.961 766.594 439.581C767.258 438.917 768.043 438.569 768.874 438.458C768.678 434.977 768.481 431.496 768.285 428.015L768.225 426.986C764.601 426.385 761.219 425.024 758.23 423.062C756.811 425.135 755.376 427.223 753.957 429.296C753.142 430.499 752.311 431.701 751.496 432.904C752.13 433.648 752.659 434.486 752.961 435.404C753.308 436.48 753.263 437.683 752.915 438.743C752.81 439.075 752.674 439.391 752.523 439.692C752.145 440.673 751.602 441.622 750.983 442.414C750.168 443.458 749.05 444.17 747.782 444.36C745.683 444.676 743.706 443.727 742.422 442.05C741.984 441.607 741.622 441.084 741.35 440.515C740.188 438.062 740.913 435.262 742.649 433.315C743.373 432.508 744.31 431.812 745.321 431.369C745.789 431.116 746.302 430.926 746.816 430.799C747.722 430.578 748.552 430.705 749.322 431.068L753.927 421.78L754.682 420.245C752.523 418.252 750.681 415.894 749.231 413.267C746.846 414.533 744.445 415.815 742.06 417.081C740.807 417.745 739.539 418.426 738.285 419.09C738.527 420.056 738.618 421.052 738.482 422.018C738.316 423.141 737.757 424.185 736.972 424.961C736.73 425.198 736.474 425.42 736.202 425.609C735.432 426.306 734.541 426.875 733.635 427.287C732.458 427.825 731.159 427.92 729.936 427.477C727.928 426.749 726.6 424.945 726.192 422.84C725.996 422.239 725.905 421.59 725.92 420.957C725.966 418.22 727.838 416.068 730.238 415.198C731.235 414.834 732.367 414.66 733.454 414.755C733.983 414.755 734.511 414.834 735.024 414.976C735.915 415.23 736.61 415.736 737.138 416.432C739.856 414.423 742.588 412.429 745.306 410.419C745.97 409.929 746.62 409.454 747.284 408.964C746.363 406.337 745.789 403.536 745.653 400.625C742.709 400.593 739.78 400.577 736.836 400.546L732.609 400.498C732.397 401.463 732.035 402.413 731.507 403.188C730.872 404.106 729.906 404.755 728.864 405.071C728.547 405.166 728.23 405.229 727.898 405.277C726.917 405.53 725.86 405.609 724.894 405.53C723.61 405.435 722.418 404.897 721.527 403.9C720.077 402.286 719.685 400.039 720.243 397.982C720.334 397.349 720.53 396.732 720.817 396.179C722.07 393.758 724.667 392.777 727.188 393.141C728.245 393.299 729.317 393.694 730.238 394.311C730.706 394.58 731.144 394.897 731.537 395.261C732.231 395.91 732.609 396.701 732.775 397.571C736.066 397.112 739.373 396.637 742.664 396.179C743.721 396.036 744.778 395.878 745.834 395.735C746.151 392.998 746.846 390.403 747.858 387.966L747.541 387.792C744.853 386.305 742.181 384.818 739.493 383.314C738.24 382.618 737.002 381.922 735.749 381.242C735.13 382.001 734.405 382.666 733.59 383.093C732.624 383.599 731.476 383.71 730.419 383.488C730.102 383.425 729.785 383.33 729.468 383.204C728.487 382.95 727.521 382.507 726.69 381.969C725.603 381.257 724.773 380.197 724.41 378.9C723.837 376.764 724.471 374.58 725.875 373.029C726.237 372.507 726.69 372.064 727.188 371.7C729.363 370.165 732.095 370.529 734.164 372.08C735.024 372.729 735.809 373.599 736.353 374.596C736.655 375.055 736.896 375.545 737.093 376.067C737.41 376.985 737.425 377.855 737.168 378.71C740.293 379.897 743.434 381.067 746.559 382.254C747.752 382.697 748.93 383.14 750.122 383.599C751.496 381.447 753.142 379.501 755.014 377.824C754.863 377.602 754.727 377.381 754.576 377.159C752.855 374.548 751.119 371.922 749.398 369.311C748.597 368.093 747.797 366.874 746.997 365.656C746.121 366.036 745.185 366.273 744.264 366.257C743.177 366.257 742.12 365.782 741.275 365.086C741.018 364.865 740.777 364.627 740.55 364.374C739.795 363.678 739.131 362.823 738.618 361.937C737.953 360.782 737.697 359.437 737.953 358.124C738.376 355.94 739.901 354.311 741.833 353.614C742.377 353.33 742.981 353.14 743.585 353.076C746.182 352.76 748.461 354.406 749.609 356.779C750.092 357.776 750.409 358.915 750.454 360.07C750.515 360.624 750.53 361.178 750.454 361.732C750.349 362.697 749.956 363.488 749.367 364.121C751.632 366.684 753.897 369.232 756.146 371.795C757.067 372.84 757.988 373.884 758.909 374.912C760.978 373.646 763.227 372.665 765.598 372.001L765.492 371.131C765.114 367.982 764.737 364.817 764.344 361.668C764.163 360.197 763.997 358.741 763.816 357.27C762.88 357.175 761.929 356.937 761.129 356.478C760.177 355.94 759.423 355.023 758.985 353.994C758.849 353.678 758.743 353.345 758.653 353.013C758.29 352.016 758.064 350.94 758.003 349.912C757.928 348.567 758.275 347.254 759.09 346.193C760.419 344.469 762.487 343.757 764.511 344.073C765.114 344.073 765.734 344.216 766.292 344.437C768.738 345.402 770.036 347.981 770.006 350.64C770.006 351.747 769.765 352.918 769.312 353.963C769.131 354.485 768.889 354.975 768.587 355.434C768.059 356.241 767.379 356.747 766.564 357.032C767.455 360.403 768.33 363.757 769.221 367.127C769.568 368.472 769.931 369.817 770.278 371.162C770.972 371.099 771.667 371.083 772.377 371.083C774.173 371.083 775.91 371.273 777.6 371.621L777.797 371.067C778.854 368.077 779.895 365.102 780.952 362.111C781.435 360.719 781.934 359.342 782.417 357.95C781.617 357.412 780.892 356.747 780.378 355.956C779.759 355.023 779.503 353.852 779.578 352.712C779.593 352.364 779.654 352.032 779.714 351.684C779.82 350.624 780.107 349.564 780.499 348.63C781.013 347.396 781.903 346.399 783.096 345.861C785.044 344.975 787.188 345.339 788.833 346.589C789.377 346.89 789.86 347.301 790.268 347.776C792.019 349.817 792.034 352.728 790.841 355.07C790.343 356.051 789.634 356.985 788.758 357.681C788.365 358.061 787.927 358.377 787.459 358.646C786.644 359.105 785.799 359.232 784.968 359.089C784.274 362.507 783.579 365.909 782.885 369.327L782.13 373.014C784.53 373.995 786.765 375.34 788.773 376.969C791.007 374.833 793.257 372.681 795.492 370.545C796.533 369.548 797.575 368.551 798.617 367.555C798.149 366.7 797.786 365.751 797.681 364.801C797.545 363.678 797.832 362.507 798.39 361.542C798.556 361.241 798.753 360.972 798.964 360.703C799.523 359.817 800.247 359.01 801.002 358.377C801.999 357.539 803.237 357.08 804.52 357.175C806.634 357.317 808.385 358.694 809.306 360.592C809.653 361.115 809.91 361.716 810.046 362.333C810.695 364.991 809.442 367.57 807.343 369.089C806.468 369.722 805.426 370.197 804.354 370.403C803.841 370.545 803.312 370.624 802.784 370.624C801.863 370.624 801.063 370.339 800.383 369.817C798.27 372.507 796.156 375.197 794.042 377.903C793.423 378.694 792.789 379.485 792.17 380.292C793.982 382.381 795.492 384.738 796.654 387.333C799.341 386.59 802.029 385.83 804.716 385.087L808.808 383.947C808.763 382.95 808.868 381.954 809.185 381.052C809.563 379.991 810.333 379.09 811.254 378.504C811.541 378.33 811.827 378.172 812.129 378.029C813.02 377.523 814.002 377.143 814.968 376.953C816.221 376.684 817.519 376.874 818.622 377.586C820.433 378.741 821.384 380.798 821.354 382.935C821.43 383.568 821.384 384.216 821.249 384.833C820.66 387.507 818.41 389.185 815.889 389.533C814.832 389.675 813.7 389.596 812.658 389.264C812.145 389.137 811.631 388.963 811.163 388.71C810.333 388.267 809.759 387.618 809.382 386.827C806.317 388.204 803.267 389.564 800.202 390.941C799.538 391.242 798.873 391.527 798.209 391.827C798.828 394.201 799.16 396.685 799.16 399.264C799.16 399.755 799.16 400.245 799.13 400.736C801.591 401.305 804.067 401.875 806.528 402.46C807.902 402.777 809.276 403.093 810.665 403.426C811.058 402.524 811.601 401.685 812.28 401.036C813.081 400.277 814.153 399.849 815.24 399.77C815.572 399.739 815.904 399.755 816.221 399.77C817.233 399.739 818.274 399.897 819.21 400.182C820.448 400.562 821.505 401.353 822.185 402.508C823.287 404.407 823.226 406.685 822.275 408.568L822.396 408.536Z" fill="white"/>
<path opacity="0.5" d="M272.666 643.854C272.549 644.188 272.373 644.495 272.156 644.768C271.212 645.928 269.7 646.157 268.38 645.647C267.828 645.436 267.285 645.084 266.859 644.645C266.633 644.443 266.433 644.223 266.257 643.968C265.957 643.528 265.831 643.054 265.84 642.561C264.001 642.412 262.163 642.271 260.334 642.122C260.066 642.104 259.807 642.078 259.54 642.06C259.181 643.792 258.537 645.427 257.677 646.886C258.663 647.757 259.648 648.627 260.634 649.488C261.236 650.016 261.829 650.543 262.431 651.071C262.848 650.737 263.316 650.464 263.801 650.323C264.386 650.165 265.012 650.244 265.564 650.49C265.731 650.57 265.89 650.657 266.048 650.763C266.55 651.018 267.026 651.369 267.419 651.765C267.937 652.284 268.263 652.952 268.313 653.708C268.396 654.938 267.811 656.046 266.876 656.723C266.625 656.96 266.333 657.154 266.023 657.286C264.678 657.857 263.233 657.33 262.289 656.231C261.896 655.774 261.562 655.202 261.378 654.604C261.269 654.314 261.186 654.024 261.144 653.717C261.069 653.18 261.169 652.706 261.386 652.266C259.824 651.246 258.253 650.227 256.691 649.207C256.549 649.11 256.398 649.014 256.256 648.926C255.137 650.279 253.808 651.422 252.313 652.31C252.789 653.506 253.265 654.701 253.733 655.905C254.034 656.661 254.335 657.417 254.635 658.182C255.153 658.086 255.688 658.068 256.181 658.182C256.766 658.323 257.292 658.701 257.668 659.184C257.785 659.334 257.885 659.492 257.977 659.659C258.312 660.134 258.579 660.679 258.754 661.215C258.988 661.918 258.98 662.683 258.696 663.369C258.228 664.503 257.225 665.197 256.106 665.347C255.78 665.434 255.437 665.461 255.103 665.434C253.658 665.294 252.613 664.116 252.246 662.692C252.095 662.094 252.054 661.435 252.145 660.802C252.171 660.494 252.229 660.186 252.321 659.896C252.488 659.387 252.78 659.009 253.173 658.727C252.229 657.066 251.285 655.396 250.341 653.734L250.124 653.356C248.553 653.963 246.865 654.288 245.094 654.297C244.985 655.607 244.885 656.925 244.776 658.235C244.709 659.052 244.643 659.87 244.584 660.688C245.085 660.855 245.57 661.092 245.954 661.444C246.414 661.848 246.715 662.437 246.84 663.052C246.873 663.237 246.898 663.43 246.907 663.624C246.999 664.204 246.999 664.819 246.915 665.382C246.807 666.12 246.472 666.797 245.921 667.272C245.01 668.045 243.815 668.186 242.754 667.773C242.428 667.694 242.111 667.553 241.827 667.36C240.607 666.533 240.189 664.986 240.49 663.536C240.615 662.929 240.866 662.323 241.234 661.813C241.392 661.549 241.576 661.312 241.785 661.101C242.153 660.732 242.587 660.538 243.047 660.477C242.938 658.543 242.829 656.609 242.721 654.675L242.687 654.103C240.682 653.769 238.811 653.013 237.156 651.923C236.371 653.075 235.577 654.235 234.792 655.387C234.341 656.055 233.881 656.723 233.43 657.391C233.781 657.804 234.073 658.27 234.24 658.78C234.433 659.378 234.407 660.046 234.215 660.635C234.157 660.819 234.082 660.995 233.998 661.162C233.789 661.707 233.488 662.235 233.146 662.674C232.695 663.254 232.076 663.65 231.375 663.755C230.213 663.931 229.119 663.404 228.408 662.472C228.166 662.226 227.966 661.936 227.815 661.619C227.172 660.257 227.573 658.701 228.534 657.62C228.935 657.171 229.453 656.785 230.013 656.538C230.272 656.398 230.556 656.292 230.84 656.222C231.341 656.099 231.801 656.169 232.227 656.371L234.775 651.211L235.193 650.359C233.998 649.251 232.979 647.941 232.177 646.482C230.857 647.185 229.528 647.897 228.208 648.6C227.514 648.97 226.813 649.348 226.119 649.717C226.253 650.253 226.303 650.807 226.228 651.343C226.136 651.967 225.827 652.547 225.392 652.978C225.259 653.11 225.117 653.233 224.966 653.339C224.54 653.725 224.047 654.042 223.546 654.27C222.894 654.569 222.176 654.622 221.499 654.376C220.388 653.972 219.652 652.969 219.427 651.8C219.318 651.466 219.268 651.106 219.276 650.754C219.301 649.233 220.337 648.038 221.666 647.554C222.217 647.352 222.844 647.256 223.445 647.308C223.738 647.308 224.03 647.352 224.314 647.431C224.807 647.572 225.192 647.853 225.484 648.24C226.988 647.124 228.5 646.016 230.004 644.9C230.372 644.627 230.731 644.363 231.099 644.091C230.589 642.632 230.272 641.076 230.196 639.458C228.567 639.441 226.946 639.432 225.317 639.414L222.978 639.388C222.861 639.924 222.66 640.452 222.368 640.882C222.017 641.392 221.482 641.753 220.906 641.928C220.73 641.981 220.555 642.016 220.371 642.043C219.828 642.183 219.243 642.227 218.708 642.183C217.998 642.131 217.338 641.832 216.845 641.278C216.043 640.381 215.826 639.133 216.135 637.99C216.185 637.639 216.293 637.296 216.452 636.988C217.146 635.643 218.583 635.098 219.978 635.3C220.563 635.388 221.156 635.608 221.666 635.951C221.925 636.1 222.167 636.276 222.384 636.478C222.769 636.839 222.978 637.278 223.07 637.762C224.891 637.507 226.721 637.243 228.542 636.988C229.127 636.909 229.712 636.821 230.297 636.742C230.472 635.221 230.857 633.779 231.416 632.426L231.241 632.329C229.754 631.503 228.275 630.676 226.788 629.841C226.094 629.455 225.409 629.068 224.715 628.69C224.373 629.112 223.972 629.481 223.521 629.718C222.986 630 222.351 630.061 221.766 629.938C221.591 629.903 221.415 629.85 221.24 629.78C220.697 629.639 220.162 629.393 219.702 629.094C219.101 628.699 218.641 628.11 218.441 627.389C218.123 626.202 218.474 624.989 219.251 624.127C219.452 623.837 219.702 623.591 219.978 623.389C221.181 622.536 222.694 622.739 223.838 623.6C224.314 623.96 224.749 624.444 225.05 624.998C225.217 625.253 225.35 625.525 225.459 625.815C225.635 626.325 225.643 626.809 225.501 627.283C227.23 627.943 228.968 628.593 230.698 629.252C231.358 629.498 232.01 629.745 232.67 630C233.43 628.804 234.341 627.723 235.377 626.791C235.293 626.668 235.218 626.545 235.134 626.422C234.182 624.971 233.221 623.512 232.269 622.062C231.826 621.385 231.383 620.708 230.94 620.031C230.455 620.242 229.937 620.374 229.428 620.365C228.826 620.365 228.241 620.101 227.773 619.715C227.631 619.591 227.498 619.46 227.372 619.319C226.955 618.932 226.587 618.457 226.303 617.965C225.935 617.323 225.793 616.576 225.935 615.847C226.169 614.634 227.013 613.728 228.083 613.341C228.383 613.183 228.718 613.078 229.052 613.042C230.489 612.867 231.751 613.781 232.386 615.099C232.653 615.653 232.828 616.286 232.853 616.928C232.887 617.236 232.895 617.543 232.853 617.851C232.795 618.387 232.578 618.827 232.252 619.178C233.505 620.602 234.758 622.018 236.003 623.442C236.513 624.022 237.023 624.602 237.532 625.173C238.677 624.47 239.922 623.925 241.234 623.556L241.175 623.073C240.966 621.323 240.757 619.565 240.54 617.816C240.44 616.998 240.348 616.189 240.248 615.372C239.73 615.319 239.203 615.187 238.761 614.932C238.234 614.634 237.816 614.124 237.574 613.552C237.499 613.377 237.44 613.192 237.39 613.007C237.19 612.453 237.064 611.856 237.031 611.284C236.989 610.537 237.181 609.808 237.633 609.219C238.368 608.26 239.512 607.865 240.632 608.041C240.966 608.041 241.309 608.12 241.618 608.243C242.972 608.779 243.69 610.212 243.673 611.689C243.673 612.304 243.54 612.955 243.289 613.535C243.189 613.825 243.055 614.097 242.888 614.352C242.596 614.801 242.22 615.082 241.768 615.24C242.261 617.113 242.746 618.976 243.239 620.849C243.431 621.596 243.632 622.343 243.824 623.09C244.208 623.055 244.592 623.046 244.985 623.046C245.979 623.046 246.94 623.152 247.876 623.345L247.985 623.037C248.569 621.376 249.146 619.723 249.731 618.062C249.998 617.288 250.274 616.524 250.541 615.75C250.098 615.451 249.697 615.082 249.413 614.642C249.071 614.124 248.929 613.473 248.971 612.84C248.979 612.647 249.012 612.462 249.046 612.269C249.104 611.68 249.263 611.091 249.48 610.572C249.764 609.887 250.257 609.333 250.917 609.034C251.995 608.542 253.182 608.744 254.092 609.438C254.393 609.605 254.66 609.834 254.886 610.098C255.855 611.232 255.864 612.849 255.203 614.15C254.928 614.695 254.535 615.214 254.05 615.601C253.833 615.812 253.591 615.987 253.332 616.137C252.881 616.392 252.413 616.462 251.953 616.383C251.569 618.282 251.185 620.172 250.8 622.07L250.383 624.119C251.711 624.664 252.948 625.411 254.059 626.316C255.295 625.13 256.54 623.934 257.777 622.747C258.353 622.193 258.93 621.64 259.506 621.086C259.247 620.611 259.047 620.084 258.988 619.556C258.913 618.932 259.072 618.282 259.381 617.745C259.473 617.578 259.582 617.429 259.699 617.28C260.008 616.787 260.409 616.339 260.826 615.987C261.378 615.521 262.063 615.266 262.773 615.319C263.943 615.398 264.912 616.163 265.422 617.218C265.614 617.508 265.756 617.842 265.831 618.185C266.191 619.662 265.497 621.095 264.336 621.939C263.851 622.29 263.275 622.554 262.681 622.668C262.397 622.747 262.105 622.791 261.812 622.791C261.303 622.791 260.86 622.633 260.484 622.343C259.314 623.837 258.144 625.332 256.975 626.835C256.632 627.274 256.281 627.714 255.939 628.162C256.941 629.323 257.777 630.632 258.42 632.074C259.907 631.661 261.395 631.239 262.882 630.826L265.146 630.193C265.121 629.639 265.18 629.085 265.355 628.584C265.564 627.995 265.99 627.494 266.5 627.169C266.658 627.072 266.817 626.984 266.984 626.905C267.477 626.624 268.02 626.413 268.555 626.307C269.249 626.158 269.967 626.264 270.577 626.659C271.58 627.301 272.106 628.444 272.089 629.63C272.131 629.982 272.106 630.342 272.031 630.685C271.705 632.171 270.46 633.103 269.065 633.296C268.48 633.375 267.853 633.331 267.277 633.147C266.993 633.076 266.709 632.98 266.45 632.839C265.99 632.593 265.672 632.232 265.464 631.793C263.768 632.558 262.08 633.314 260.384 634.078C260.016 634.245 259.648 634.404 259.281 634.571C259.623 635.889 259.807 637.269 259.807 638.702C259.807 638.975 259.807 639.247 259.79 639.52C261.152 639.836 262.523 640.153 263.884 640.478C264.645 640.654 265.405 640.83 266.174 641.014C266.391 640.513 266.692 640.047 267.068 639.687C267.511 639.265 268.104 639.028 268.705 638.984C268.889 638.966 269.073 638.975 269.249 638.984C269.808 638.966 270.385 639.054 270.903 639.212C271.588 639.423 272.173 639.863 272.549 640.504C273.159 641.559 273.125 642.825 272.599 643.871L272.666 643.854Z" fill="white"/>
</g>
<defs>
<linearGradient id="paint0_linear_180_2739" x1="993.778" y1="12.6521" x2="703.038" y2="900.58" gradientUnits="userSpaceOnUse">
<stop stop-color="#DCE8FE"/>
<stop offset="0.410808" stop-color="#ECF1F5"/>
<stop offset="0.743084" stop-color="#E5F3F3"/>
<stop offset="1" stop-color="#DDEBEC"/>
</linearGradient>
<clipPath id="clip0_180_2739">
<rect width="1280" height="800" fill="white"/>
</clipPath>
</defs>
</svg>
