<svg width="554" height="345" viewBox="0 0 554 345" fill="none" xmlns="http://www.w3.org/2000/svg">
<g clip-path="url(#clip0_163_3499)">
<path d="M402.897 283.833C407.38 262.683 399.604 242.603 393.019 238.263C393.019 238.263 384.559 231.505 370.565 229.397C356.57 227.289 347.103 231.084 347.103 231.084C337.225 258.364 320.165 305.184 320.165 319.053C320.165 324.636 326.75 436.35 323.869 441L346.096 441C346.096 441 347.103 353.394 350.623 333.37C354.143 313.345 360.502 285.947 360.502 285.947C360.502 285.947 367.499 335.159 375.32 347.686C383.14 360.213 414.834 431.794 414.834 431.794L433.356 417.478C419.295 385.976 410.289 365.452 405.367 347.686C397.929 320.843 399.977 297.61 402.897 283.833Z" fill="#D6EDF3" stroke="#072A69" stroke-width="1.31389" stroke-linecap="round" stroke-linejoin="round"/>
<path d="M311.907 118.156C312.929 123.949 326.816 129.941 334.483 132.639C334.483 141.84 328.52 148.683 325.538 151.381C320.426 151.381 297.851 141.158 295.72 129.231C294.522 122.522 296.004 81.8064 298.276 63.6317C294.442 60.6499 296.998 53.4085 298.276 50.0006C299.298 47.2744 305.233 50.0006 308.073 51.7046C312.333 44.0371 320.778 46.0103 318.297 47.8709C313.185 51.7046 312.901 57.3841 311.907 61.5018C308.073 64.0576 310.629 110.914 311.907 118.156Z" fill="#D98F6F" stroke="#072A69" stroke-width="1.61868" stroke-linecap="round" stroke-linejoin="round"/>
<path d="M306.551 53.1481C305.912 54.8996 301.636 54.0017 298.763 52.954C295.89 51.9063 295.676 50.6438 296.146 49.3541C296.616 48.0643 297.593 47.2358 300.466 48.2835C303.339 49.3312 307.19 51.3967 306.551 53.1481Z" fill="#D98F6F" stroke="#072A69" stroke-width="1.61868" stroke-linecap="round" stroke-linejoin="round"/>
<path d="M304.847 57.4079C304.209 59.1594 299.932 58.2615 297.059 57.2138C294.186 56.1661 293.972 54.9036 294.442 53.6138C294.913 52.3241 295.889 51.4956 298.762 52.5433C301.636 53.591 305.486 55.6565 304.847 57.4079Z" fill="#D98F6F" stroke="#072A69" stroke-width="1.61868" stroke-linecap="round" stroke-linejoin="round"/>
<path d="M303.995 61.6677C303.357 63.4191 299.08 62.5213 296.207 61.4736C293.334 60.4259 293.12 59.1633 293.59 57.8736C294.061 56.5839 295.037 55.7553 297.91 56.803C300.784 57.8507 304.634 59.9162 303.995 61.6677Z" fill="#D98F6F" stroke="#072A69" stroke-width="1.61868" stroke-linecap="round" stroke-linejoin="round"/>
<path d="M368.869 133.917C341.607 136.473 320.853 128.817 315.315 122.428C314.401 126.605 310.681 58.9301 310.938 64.4961C311.195 70.0786 300.405 67.4779 297.424 66.626C293.59 79.831 292.738 133.403 295.72 136.485C308.5 149.69 344.305 157.203 354.386 156.067C336.666 185.715 331.1 221.24 330.532 239.983C343.737 235.297 367.591 237.853 376.536 242.113C383.693 245.521 395.113 245.533 402.639 243.829L400.083 228.735C410.602 234.356 420.423 237.071 425.641 232.328C438.42 214.863 398.261 138.46 388.89 128.805L368.869 133.917Z" fill="#58C1C5"/>
<path d="M354.386 156.067C336.666 185.715 331.1 221.24 330.532 239.983C343.737 235.297 367.591 237.853 376.536 242.113C383.693 245.521 395.113 245.533 402.639 243.829L400.083 228.735M354.386 156.067C344.305 157.203 308.5 149.69 295.72 136.485C292.738 133.403 293.59 79.831 297.424 66.626C300.405 67.4779 311.195 70.0786 310.938 64.4961C310.681 58.9301 314.401 126.605 315.315 122.428C320.853 128.817 341.607 136.473 368.869 133.917L388.89 128.805C398.261 138.46 438.42 214.863 425.641 232.328C420.423 237.071 410.602 234.356 400.083 228.735M354.386 156.067C355.757 153.682 358.909 150.258 360.467 148.412M387.186 152.233C388.89 164.599 393.267 191.861 397.953 208.048L368.869 191.861L366.857 204.64C374.849 211.87 387.931 222.241 400.083 228.735" stroke="#072A69" stroke-width="1.31389" stroke-linecap="round" stroke-linejoin="round"/>
<path d="M406.046 211.881L396.675 207.196" stroke="#072A69" stroke-width="1.31389" stroke-linecap="round" stroke-linejoin="round"/>
<path d="M332.406 146.788L332.406 146.788L332.411 146.794C339.486 155.244 349.384 168.824 356.087 182.096C359.44 188.734 361.975 195.261 362.972 201.008C363.953 206.664 363.427 211.454 360.866 214.881L325.688 222.624C326.606 217.066 326.531 209.614 322.023 200.799C317.258 191.48 307.568 180.694 288.996 169.012C288.272 168.421 287.495 167.65 286.859 166.795C286.21 165.922 285.735 165 285.579 164.118C285.427 163.26 285.573 162.434 286.18 161.672C286.806 160.887 287.972 160.108 289.982 159.486C295.303 157.84 297.373 155.81 298.73 153.998C298.968 153.68 299.177 153.382 299.372 153.104C300.281 151.809 300.887 150.946 302.675 150.521C305.016 149.965 307.934 150.159 310.705 150.434C311.081 150.471 311.455 150.509 311.823 150.548C312.792 150.648 313.726 150.744 314.565 150.8C315.713 150.877 316.776 150.885 317.585 150.693C318.364 150.508 319.593 149.966 320.95 149.358C321.071 149.304 321.192 149.25 321.316 149.195C322.616 148.612 324.067 147.961 325.51 147.409C327.096 146.801 328.624 146.331 329.889 146.194C331.184 146.053 331.991 146.28 332.406 146.788Z" fill="white" stroke="#072A69" stroke-width="1.31389"/>
<path d="M313.198 213.158L352.728 203.758C352.812 206.63 354.127 209.139 355.741 211.118C357.024 212.691 358.52 213.96 359.813 214.849L325.494 223.01C319.925 223.751 316.817 222.123 315.122 219.942C313.51 217.869 313.078 215.176 313.198 213.158Z" fill="white" stroke="#072A69" stroke-width="1.31389"/>
<path d="M358.764 179.413C361.589 180.367 368.62 187.799 369.413 192.454L366.431 203.979C353.961 204.823 343.859 196.534 342.151 193.552C340.552 190.759 343.004 190.196 344.878 191.022C343.299 189.847 341.558 188.01 342.151 186.311C342.908 184.145 344.281 184.52 345.691 185.263C342.389 180.28 345.985 180.037 348.115 181.199C352.8 183.755 354.504 184.52 357.06 184.52C356.208 180.694 354.984 178.137 358.764 179.413Z" fill="#D98F6F"/>
<path d="M345.691 185.263C344.281 184.52 342.908 184.145 342.151 186.311C341.411 188.431 344.305 190.765 345.985 191.761M345.691 185.263C342.389 180.28 345.985 180.037 348.115 181.199C352.8 183.755 354.504 184.52 357.06 184.52C356.208 180.694 354.984 178.137 358.764 179.413C361.589 180.367 368.62 187.799 369.413 192.454L366.431 203.979C353.961 204.823 343.859 196.534 342.151 193.552C340.2 190.144 344.281 190.056 345.985 191.761M345.691 185.263C348.541 187.927 353.45 189.843 357.06 190.057M345.985 191.761C347.665 192.757 352.658 195.256 355.356 195.256" stroke="#072A69" stroke-width="1.61868" stroke-linecap="round" stroke-linejoin="round"/>
<path d="M353.08 118.747L353.08 87.1599C353.08 85.0915 356.117 69.0927 376.463 70.3309C396.808 71.5692 398.615 86.3298 398.615 86.3298C398.615 94.1782 397.374 98.5894 394.622 100.983C397.687 98.9459 401.579 97.343 402.717 102.748C404.03 108.984 397.247 111.363 393.692 111.773C391.067 125.885 393.692 136.25 395.333 139.669C392.051 146.233 380.565 145.139 375.232 143.771L375.232 133.516C353.244 134.172 353.08 126.131 353.08 118.747Z" fill="white" stroke="#072A69" stroke-width="1.55886" stroke-linejoin="round"/>
<path d="M387.827 181.286C390.533 172.757 386.165 154.739 381.005 146.969L390.592 141.523C398.669 159.632 407.056 179.287 404.873 187.72C401.19 189.479 399.802 185.253 396.666 177.844C394.735 173.281 390.882 177.011 387.827 181.286C387.296 182.958 386.494 184.265 385.373 185.059C386.071 183.891 386.913 182.564 387.827 181.286Z" fill="#072A69"/>
<path d="M381.005 146.969C387.177 156.262 392.214 180.213 385.373 185.059C388.406 179.984 394.158 171.916 396.666 177.844C399.802 185.253 401.19 189.479 404.873 187.72C407.056 179.287 398.669 159.632 390.592 141.523L381.005 146.969Z" stroke="#072A69" stroke-width="1.55886" stroke-linecap="round" stroke-linejoin="round"/>
<path d="M407.388 93.2824C401.765 70.886 384.181 68.7106 375.006 69.2545C361.626 65.9913 352.444 77.0601 349.776 95.3595C347.1 113.715 350.923 124.32 355.128 133.664C354.236 133.256 349.817 134.561 348.899 138.15C347.982 141.74 351.066 143.181 352.722 143.453C349.664 146.852 346.147 153.079 356.545 150.795C381.961 153.603 405.64 143.231 404.523 140.066C405.746 134.845 397.066 134.071 394.773 133.664C399.487 129.313 412.699 114.438 407.388 93.2824Z" fill="#072A69" stroke="#072A69" stroke-width="0.820454"/>
<path d="M390.052 95.609C388.273 90.7276 387.406 86.2531 374.178 77.7107C362.949 82.2228 361.04 85.0948 357.925 93.2059C357.799 98.6296 357.623 108.789 357.925 115.948C358.228 123.107 363.343 125.711 365.863 126.117L378.713 126.117C385.365 126.117 389.17 121.643 390.163 117.206C391.155 112.769 390.052 95.609 390.052 95.609Z" fill="#D98F6F" stroke="#072A69" stroke-width="1.55886" stroke-linejoin="round"/>
<path d="M373.757 78.1179C367.604 78.1179 359.809 88.3736 359.809 88.3736C359.809 88.3736 363.911 86.7327 372.116 86.7327C380.321 86.7327 387.294 88.3736 387.294 88.3736C387.294 88.3736 379.91 78.1179 373.757 78.1179Z" fill="white" stroke="#072A69" stroke-width="1.55886" stroke-linejoin="round"/>
<path d="M361.42 145.1C358.862 145.352 354.772 144.582 352.679 144.069" stroke="white" stroke-width="1.55886" stroke-linecap="round" stroke-linejoin="round"/>
<path d="M385.533 137.979C388.405 137.296 392.507 135.518 394.558 133.877" stroke="white" stroke-width="1.55886" stroke-linecap="round" stroke-linejoin="round"/>
<path d="M388.886 144.622C393.127 158.339 395.004 165.761 394.384 173.817" stroke="white" stroke-width="1.55886" stroke-linecap="round" stroke-linejoin="round"/>
<path d="M362.937 101.641C363.149 100.749 363.667 99.7544 365.053 99.8822C366.344 100.001 367.024 101.106 366.905 102.397" stroke="#072A69" stroke-width="1.31389" stroke-linecap="round" stroke-linejoin="round"/>
<path d="M376.97 102.215C377.141 101.314 377.613 100.297 379.003 100.362C380.299 100.422 381.028 101.494 380.968 102.79" stroke="#072A69" stroke-width="1.31389" stroke-linecap="round" stroke-linejoin="round"/>
<path d="M374.874 105.629C374.213 103.462 371.922 102.241 369.755 102.901C367.588 103.561 366.367 105.853 367.027 108.019C367.418 109.303 368.382 110.254 369.553 110.68" stroke="#072A69" stroke-width="1.31389" stroke-linecap="round" stroke-linejoin="round"/>
<path d="M377.442 93.7705C377.442 92.0684 381.954 91.6583 383.184 94.9393" stroke="#072A69" stroke-width="1.31389" stroke-linecap="round" stroke-linejoin="round"/>
<path d="M366.779 93.7705C366.779 92.0685 361.858 91.2482 361.038 94.9392" stroke="#072A69" stroke-width="1.31389" stroke-linecap="round" stroke-linejoin="round"/>
<path d="M376.272 122.061C381.37 120.649 383.467 113.735 383.879 110.454C379.686 114.183 369.724 117.857 362.577 114.346C363.445 120.915 371.173 123.472 376.272 122.061Z" fill="#072A69" stroke="#072A69" stroke-width="1.31389" stroke-linecap="round" stroke-linejoin="round"/>
<path d="M373.894 119.763C371.275 118.081 368.756 119.444 367.824 120.335C374.733 123.785 378.203 120.013 379.074 117.695C377.091 116.175 374.794 118.44 373.894 119.763Z" fill="#E74F4F"/>
<path d="M133.581 274.245C129.164 253.409 136.825 233.627 143.313 229.351C143.313 229.351 151.646 222.693 165.433 220.616C179.22 218.539 188.547 222.278 188.547 222.278C198.279 249.154 215.086 295.28 215.086 308.943C215.086 314.443 208.598 424.501 211.437 429.082L189.54 429.082C189.54 429.082 188.547 342.775 185.079 323.047C181.611 303.319 175.347 276.328 175.347 276.328C175.347 276.328 168.454 324.81 160.749 337.151C153.045 349.492 121.821 420.012 121.821 420.012L103.573 405.908C117.425 374.874 126.298 354.654 131.147 337.151C138.475 310.706 136.457 287.818 133.581 274.245Z" fill="#0065C7" stroke="#072A69" stroke-width="1.31389" stroke-linecap="round" stroke-linejoin="round"/>
<path d="M160.946 243.122C159.33 250.67 153.188 264.352 141.552 258.69" stroke="#072A69" stroke-width="1.31389" stroke-linecap="round" stroke-linejoin="round"/>
<path d="M175.491 276.933C175.491 276.933 177.107 260.242 177.107 240.453C177.107 240.453 179.531 256.468 179.935 265.811C180.339 275.153 178.723 291.614 178.723 291.614L175.491 276.933Z" fill="#072A69" stroke="#072A69" stroke-width="1.31389" stroke-linecap="round" stroke-linejoin="round"/>
<path d="M272.876 103.124C270.17 101.68 272.537 105.624 268.107 110.43C264.438 113.909 238.47 126.815 218.528 130.429C216.663 130.767 214.822 131.051 213.021 131.271C212.068 136.737 212.614 142.788 214.49 146.438C216.915 147.233 218.721 146.887 221.392 145.642C239.143 140.376 262.969 124.086 271.474 122.19C276.955 120.968 289.225 115.752 287.881 112.572C287.308 111.219 286.412 111.102 285.577 111.339C286.461 110.732 287.149 109.825 286.656 108.585C286.075 107.122 284.159 107.896 282.903 108.537C284.489 107.354 285.519 104.887 283.751 104.06C277.864 107.06 276.091 108.564 273.295 108.852C274.283 107.544 275.582 104.568 272.876 103.124Z" fill="#F5B896"/>
<path d="M281.865 109.08C283.94 108.449 285.886 105.058 283.751 104.06C277.864 107.06 276.091 108.564 273.295 108.852C274.283 107.544 275.582 104.568 272.876 103.124C270.17 101.68 272.537 105.624 268.107 110.43C264.438 113.909 238.47 126.815 218.528 130.429C216.663 130.767 214.822 131.051 213.021 131.271C212.068 136.737 212.614 142.788 214.49 146.438C216.915 147.233 218.721 146.887 221.392 145.642C239.143 140.376 262.969 124.086 271.474 122.19C276.955 120.968 289.225 115.752 287.881 112.572C286.805 110.027 284.581 111.855 283.777 112.183M281.865 109.08C282.501 108.813 285.853 106.563 286.656 108.585C287.492 110.689 284.93 111.832 283.777 112.183M281.865 109.08C281.865 109.08 279.55 110.162 274.64 112.033M283.777 112.183C283.777 112.183 277.123 115.15 275.981 115.12" stroke="#072A69" stroke-width="1.31425" stroke-linecap="round" stroke-linejoin="round"/>
<path d="M183.934 181.193C181.671 184.103 176.525 187.794 174.235 189.276C172.618 188.629 179.547 182.81 181.972 179.172C184.397 179.172 186.198 178.283 183.934 181.193Z" fill="#072A69" stroke="#072A69" stroke-width="1.31425" stroke-linecap="round" stroke-linejoin="round"/>
<path d="M213.495 131.48C195.713 133.501 187.923 131.076 169.039 125.822C169.039 125.822 165.402 127.035 157.723 126.227C150.044 125.418 147.731 121.781 147.731 121.781C143.346 125.284 131.806 145.625 131.806 167.045C131.806 188.465 129.138 233.001 123.319 233.325C117.499 233.648 149.862 237.77 159.451 233.325C169.039 228.879 190.57 226.858 203.098 231.304C199.861 219.456 193.022 194.182 191.557 187.869C200.722 191.066 208.422 193.028 211.422 192.506C220.718 190.89 256.686 177.149 256.686 177.149C254.73 175.085 244.966 165.941 244.966 163.004C237.019 162.902 216.676 175.936 189.726 165.941C188.34 162.346 187.649 159.598 186.013 156.133C191.284 158.154 269.619 127.035 276.894 124.61C274.86 119.604 265.173 111.677 261.94 111.677C238.5 124.206 213.495 131.48 213.495 131.48Z" fill="white"/>
<path d="M148.428 138.755C152.775 149.623 174.983 161.79 189.726 165.941M144.386 163.004C146.651 169.025 172.329 181.163 191.557 187.869M186.013 156.133C182.564 148.828 180.153 139.504 175.506 133.501C179.385 137.381 183.591 151.014 186.013 156.133ZM186.013 156.133C191.284 158.154 269.619 127.035 276.894 124.61C274.86 119.604 265.173 111.677 261.94 111.677C238.5 124.206 213.495 131.48 213.495 131.48C195.713 133.501 187.923 131.076 169.039 125.822C169.039 125.822 165.402 127.035 157.723 126.227C150.044 125.418 147.731 121.781 147.731 121.781C143.346 125.284 131.806 145.625 131.806 167.045C131.806 188.465 129.138 233.001 123.319 233.325C117.499 233.648 149.862 237.77 159.451 233.325C169.039 228.879 190.57 226.858 203.098 231.304C199.861 219.456 193.022 194.182 191.557 187.869M186.013 156.133C187.649 159.598 188.34 162.346 189.726 165.941M189.726 165.941C216.676 175.936 237.019 162.902 244.966 163.004C244.966 165.941 254.73 175.085 256.686 177.149C256.686 177.149 220.718 190.89 211.422 192.506C208.422 193.028 200.722 191.066 191.557 187.869" stroke="#072A69" stroke-width="1.31425" stroke-linecap="round" stroke-linejoin="round"/>
<path d="M168.987 230.498C172.543 227.265 169.122 194.125 166.966 177.959L171.816 180.384C173.433 187.82 174.376 216.353 174.645 229.689L168.987 230.498Z" fill="#D6EDF3" stroke="#072A69" stroke-width="1.31425" stroke-linecap="round" stroke-linejoin="round"/>
<path d="M162.925 126.631C160.904 126.631 158.21 126.497 157.267 126.227C157.913 127.197 162.52 146.165 163.733 153.709C164.38 154.356 167.774 156.134 169.391 156.942C169.714 151.446 164.945 133.367 162.925 126.631Z" fill="#D6EDF3" stroke="#072A69" stroke-width="1.31425" stroke-linecap="round" stroke-linejoin="round"/>
<path d="M170.602 152.9L169.794 157.345L168.178 156.537C168.582 150.071 170.602 143.604 172.623 142.392C174.24 141.422 173.027 137.946 172.623 136.33L167.773 126.226L169.794 125.822C172.623 128.247 175.587 135.926 176.26 137.946C176.665 139.159 176.799 140.102 177.473 140.371C181.029 140.048 183.939 145.625 185.556 149.262C188.26 155.346 189.732 162.599 190.001 165.428L187.576 165.024C187.172 163.407 185.017 154.786 183.131 150.475L181.514 150.879C180.841 147.915 178.685 142.759 176.26 143.2C172.704 143.847 171.815 149.801 171.815 152.9L170.602 152.9Z" fill="#445FCD" stroke="#072A69" stroke-width="1.31425" stroke-linecap="round" stroke-linejoin="round"/>
<path d="M298.859 123.69L258.948 163.601L219.036 123.69L219.036 123.69C207.712 112.371 207.706 94.6038 219.026 83.2344C224.519 77.771 231.703 74.7778 239.289 74.7778C246.423 74.7778 253.193 77.4306 258.505 82.2714C258.756 82.4998 259.14 82.4998 259.39 82.2714C264.703 77.4307 271.477 74.7778 278.607 74.7778C286.192 74.7778 293.376 77.771 298.849 83.2139C310.19 94.6033 310.183 112.371 298.859 123.69L298.859 123.69Z" fill="url(#paint0_linear_163_3499)" stroke="#072A69" stroke-width="1.31389" stroke-linejoin="round"/>
<path d="M258.715 97.8408L258.715 134.691" stroke="#F7F9FE" stroke-width="1.9853" stroke-linecap="round"/>
<path d="M241.708 116.063L275.723 116.063" stroke="#F7F9FE" stroke-width="1.9853" stroke-linecap="round"/>
<path d="M246.174 154.044C250.428 158.364 244.943 164.074 244.943 164.074C247.931 168.059 253.101 175.189 254.904 174.21C256.706 173.231 258.431 172.196 260.049 171.105C261.634 170.215 271.735 165.043 270.164 161.957C272.886 160.2 270.791 156.873 270.041 157.423C271.636 156.253 270.134 154.045 268.402 154.852C258.001 159.702 255.066 159.239 252.437 159.239C252.437 151.619 244.11 151.948 246.174 154.044Z" fill="#F5B896"/>
<path d="M270.041 157.423C271.636 156.253 270.134 154.045 268.402 154.852C258.001 159.702 255.066 159.239 252.437 159.239C252.437 151.619 244.11 151.948 246.174 154.044C250.428 158.364 244.943 164.074 244.943 164.074C247.931 168.059 253.101 175.189 254.904 174.21C256.706 173.231 258.431 172.196 260.049 171.105C261.634 170.215 271.735 165.043 270.164 161.957M270.041 157.423C270.791 156.873 272.886 160.2 270.164 161.957M270.041 157.423C267.584 159.227 261.539 162.743 257.016 162.377M270.164 161.957C267.441 163.715 261.197 167.107 258.001 166.617" stroke="#072A69" stroke-width="1.31425" stroke-linecap="round" stroke-linejoin="round"/>
<path d="M148.375 122.996C149.668 131.726 155.38 146.571 157.266 149.265L160.903 152.094C160.095 150.478 153.225 131.483 151.608 124.613L148.375 122.996Z" fill="#445FCD" stroke="#072A69" stroke-width="1.31425" stroke-linecap="round" stroke-linejoin="round"/>
<path d="M160.514 193.639C162.328 185.002 162.547 178.312 161.712 175.131L159.544 174.322C159.742 176.119 160.514 183.213 158.479 193.317L160.514 193.639Z" fill="#445FCD" stroke="#072A69" stroke-width="1.31425" stroke-linecap="round" stroke-linejoin="round"/>
<circle cx="159.692" cy="194.126" r="3.63704" fill="#445FCD" stroke="#072A69" stroke-width="1.31425" stroke-linecap="round" stroke-linejoin="round"/>
<path d="M190.58 102.022L190.58 70.9111C190.58 70.9111 187.347 54.7403 167.55 54.3363C147.752 53.9323 145.732 70.0936 145.732 70.0936C145.732 77.8323 148.182 82.178 151.215 84.5334C147.874 82.5235 142.814 80.9335 141.692 86.2644C140.399 92.4057 147.079 94.7491 150.58 95.1531C153.166 109.052 150.58 119.26 148.964 122.627C152.196 129.092 163.509 128.015 168.762 126.668L168.762 116.567C190.418 117.213 190.58 109.294 190.58 102.022Z" fill="#F5B896" stroke="#072A69" stroke-width="1.31389" stroke-linejoin="round"/>
<path d="M168.358 116.566C165.527 116.438 160.877 115.596 159.622 113.266C159.569 113.151 159.518 113.039 159.469 112.93C159.512 113.045 159.564 113.157 159.622 113.266C161.584 117.544 165.84 125.634 168.358 126.263L168.358 116.566Z" fill="#072A69" stroke="#072A69" stroke-width="1.31389" stroke-linecap="round" stroke-linejoin="round"/>
<path d="M153.38 86.2553L153.38 76.1545C156.314 74.7003 161.919 74.9464 169.974 74.5383C170.455 74.514 170.84 60.0049 171.994 59.9931L174.176 71.2154C174.455 73.1424 174.683 74.5383 174.823 74.5383C182.929 74.5383 190.58 74.4037 193.408 76.1545C197.852 71.7099 188.964 45.4478 167.146 52.7208C156.757 49.7579 137.247 54.7405 143.308 83.0228C147.752 81.0026 151.899 84.7738 153.38 86.2553Z" fill="#072A69"/>
<path d="M174.823 74.5383C182.929 74.5383 190.58 74.4037 193.408 76.1545C197.852 71.7099 188.964 45.4478 167.146 52.7208C156.756 49.7579 137.247 54.7405 143.308 83.0228C147.752 81.0026 151.899 84.7738 153.38 86.2553L153.38 76.1545C156.314 74.7003 161.919 74.9464 169.974 74.5383C170.455 74.514 170.84 60.0049 171.994 59.9931M174.823 74.5383C174.372 74.5383 172.996 59.983 171.994 59.9931M174.823 74.5383L171.994 59.9931" stroke="#072A69" stroke-width="1.53533" stroke-linecap="round" stroke-linejoin="round"/>
<path d="M182.736 77.72C184.756 76.9119 188.393 78.205 188.393 81.7612" stroke="#072A69" stroke-width="1.52781" stroke-linecap="round" stroke-linejoin="round"/>
<path d="M166.48 77.5837C165.268 77.1797 162.683 78.0685 162.036 80.0079" stroke="#072A69" stroke-width="1.52781" stroke-linecap="round" stroke-linejoin="round"/>
<path d="M163.732 97.1301C163.732 100.363 165.753 103.256 168.71 104.945C173.236 107.532 178.686 106.83 181.643 104.541" stroke="#072A69" stroke-width="1.52781" stroke-linecap="round" stroke-linejoin="round"/>
<circle cx="1.2121" cy="1.2121" r="1.2121" transform="matrix(-1 -9.01965e-08 -9.01965e-08 1 170.604 87.1729)" fill="#072A69"/>
<circle cx="1.2121" cy="1.2121" r="1.2121" transform="matrix(-1 -9.01965e-08 -9.01965e-08 1 184.411 87.446)" fill="#072A69"/>
<path d="M172.794 92.4225C173.445 90.2873 175.703 89.0839 177.838 89.7344C179.973 90.385 181.177 92.6432 180.526 94.7783C180.141 96.0431 179.191 96.981 178.037 97.4002" stroke="#072A69" stroke-width="1.52781" stroke-linecap="round" stroke-linejoin="round"/>
<circle cx="168.579" cy="88.2331" r="5.25243" stroke="#072A69" stroke-width="1.31389" stroke-linecap="round" stroke-linejoin="round"/>
<path d="M188.63 88.2331C188.63 91.134 186.278 93.4856 183.377 93.4856C182.503 93.4856 181.678 93.2719 180.953 92.8939C180.953 92.8939 180.953 92.045 180.145 91.0614C179.388 90.1398 178.378 89.8493 178.378 89.8493C178.214 89.3401 178.125 88.797 178.125 88.2331C178.125 85.3323 180.477 82.9807 183.377 82.9807C186.278 82.9807 188.63 85.3323 188.63 88.2331Z" stroke="#072A69" stroke-width="1.31389" stroke-linecap="round" stroke-linejoin="round"/>
<path d="M152.822 84.1929C155.246 85.5396 160.579 88.2332 162.519 88.2332" stroke="#072A69" stroke-width="1.31389" stroke-linecap="round" stroke-linejoin="round"/>
<path d="M167.367 110.455L167.367 116.112" stroke="#072A69" stroke-width="1.2121" stroke-linecap="round" stroke-linejoin="round"/>
<path d="M170.599 111.263L170.599 116.111" stroke="#072A69" stroke-width="1.2121" stroke-linecap="round" stroke-linejoin="round"/>
<path d="M173.832 112.071L173.832 116.111" stroke="#072A69" stroke-width="1.2121" stroke-linecap="round" stroke-linejoin="round"/>
<path d="M177.063 112.071L177.063 116.111" stroke="#072A69" stroke-width="1.2121" stroke-linecap="round" stroke-linejoin="round"/>
<path d="M180.296 112.071L180.296 115.303" stroke="#072A69" stroke-width="1.2121" stroke-linecap="round" stroke-linejoin="round"/>
<path d="M183.528 111.263L183.528 114.495" stroke="#072A69" stroke-width="1.2121" stroke-linecap="round" stroke-linejoin="round"/>
<path d="M286.159 84.8315C287.451 86.0766 290.771 83.4938 292.813 81.3739C294.856 79.2541 294.507 78.0719 293.556 77.155C292.604 76.2381 291.41 75.9339 289.367 78.0537C287.325 80.1735 284.867 83.5864 286.159 84.8315Z" fill="#FFC6B7" stroke="#072A69" stroke-width="1.55804" stroke-linecap="round" stroke-linejoin="round"/>
<path d="M289.432 87.7966C290.724 89.0417 294.043 86.4588 296.086 84.339C298.128 82.2192 297.78 81.0369 296.828 80.1201C295.877 79.2032 294.682 78.899 292.64 81.0188C290.597 83.1386 288.139 86.5515 289.432 87.7966Z" fill="#FFC6B7" stroke="#072A69" stroke-width="1.55804" stroke-linecap="round" stroke-linejoin="round"/>
<path d="M291.967 91.124C293.259 92.3691 296.578 89.7862 298.621 87.6664C300.663 85.5466 300.315 84.3643 299.364 83.4475C298.412 82.5306 297.218 82.2264 295.175 84.3462C293.132 86.466 290.675 89.8789 291.967 91.124Z" fill="#FFC6B7" stroke="#072A69" stroke-width="1.55804" stroke-linecap="round" stroke-linejoin="round"/>
</g>
<defs>
<linearGradient id="paint0_linear_163_3499" x1="209.883" y1="94.2119" x2="336.585" y2="190.362" gradientUnits="userSpaceOnUse">
<stop stop-color="#04A3A7"/>
<stop offset="1" stop-color="#3E7AD5"/>
</linearGradient>
<clipPath id="clip0_163_3499">
<rect width="554" height="397" fill="white" transform="matrix(-1 -9.01965e-08 -9.01965e-08 1 554 -52)"/>
</clipPath>
</defs>
</svg>
